<svg data-name="Векторный смарт-объект" xmlns="http://www.w3.org/2000/svg" width="260.24" height="195.18" viewBox="0 0 260.24 195.18"><defs><clipPath id="a"><path data-name="Прямоугольник 29" fill="none" d="M0 0h260.24v195.18H0z"/></clipPath></defs><g data-name="Сгруппировать 2"><g data-name="Сгруппировать 1" clip-path="url(#a)"><path data-name="Контур 1" d="M71.367 177.8c-5.267-.849-68.567-8.5-63.911-64.965s10.508-73.44 35.12-79.652 84.435-35.607 131.38-7.657 97.6 53.018 77.5 97.646-23.394 59.515-75.842 57.237-79.195 1.433-104.247-2.609" fill="#f0f6fa"/><path data-name="Контур 2" d="M19.543 54.965h88.831a5.886 5.886 0 0 1 5.855 5.883v2.359a5.886 5.886 0 0 1-5.855 5.882H19.543a5.886 5.886 0 0 1-5.855-5.882v-2.36a5.886 5.886 0 0 1 5.855-5.883" fill="#fff"/><path data-name="Контур 3" d="M12.27 73.965h35.615a5.633 5.633 0 0 1 0 11.266H12.27a5.633 5.633 0 0 1 0-11.266" fill="#fff"/><path data-name="Контур 4" d="M5.606 39.327h35.615a5.636 5.636 0 0 1 5.606 5.633 5.636 5.636 0 0 1-5.606 5.633H5.606A5.636 5.636 0 0 1 0 44.96a5.636 5.636 0 0 1 5.606-5.633" fill="#fff"/><path data-name="Контур 5" d="M24.314 50.144c1.736 0 3.144 1.079 3.144 2.41s-1.408 2.41-3.144 2.41h13.717c-1.736 0-3.144-1.079-3.144-2.41s1.408-2.41 3.144-2.41Z" fill="#fff"/><path data-name="Контур 6" d="M19.87 68.933c1.813 0 3.282 1.126 3.282 2.516s-1.469 2.516-3.282 2.516h14.319c-1.812 0-3.282-1.126-3.282-2.516s1.469-2.516 3.282-2.516Z" fill="#fff"/><path data-name="Контур 7" d="M240.7 93.178h-88.834a5.886 5.886 0 0 1-5.855-5.883v-2.359a5.886 5.886 0 0 1 5.855-5.882H240.7a5.886 5.886 0 0 1 5.855 5.882V87.3a5.886 5.886 0 0 1-5.855 5.883" fill="#fff"/><path data-name="Контур 8" d="M247.97 74.178h-35.615a5.633 5.633 0 0 1 0-11.266h35.615a5.633 5.633 0 0 1 0 11.266" fill="#fff"/><path data-name="Контур 9" d="M254.634 108.815h-35.615a5.633 5.633 0 0 1 0-11.266h35.615a5.633 5.633 0 0 1 0 11.266" fill="#fff"/><path data-name="Контур 10" d="M235.926 98c-1.736 0-3.144-1.079-3.144-2.41s1.408-2.41 3.144-2.41h-13.718c1.736 0 3.144 1.079 3.144 2.41S223.945 98 222.208 98Z" fill="#fff"/><path data-name="Контур 11" d="M240.369 79.209c-1.813 0-3.282-1.126-3.282-2.516s1.469-2.516 3.282-2.516h-14.318c1.812 0 3.282 1.126 3.282 2.516s-1.469 2.516-3.282 2.516Z" fill="#fff"/><path data-name="Прямоугольник 1" fill="#647c97" d="M200.956 41.459h1.237v3.078h-1.237z"/><path data-name="Прямоугольник 2" fill="#647c97" d="M200.956 47.693h1.237v3.078h-1.237z"/><path data-name="Прямоугольник 3" fill="#647c97" d="M196.922 45.474h3.063v1.242h-3.063z"/><path data-name="Прямоугольник 4" fill="#647c97" d="M203.126 45.474h3.063v1.242h-3.063z"/><path data-name="Прямоугольник 5" fill="#647c97" d="M13.089 91.793h1.237v3.078h-1.237z"/><path data-name="Прямоугольник 6" fill="#647c97" d="M13.089 98.027h1.237v3.078h-1.237z"/><path data-name="Прямоугольник 7" fill="#647c97" d="M9.054 95.808h3.063v1.242H9.054z"/><path data-name="Прямоугольник 8" fill="#647c97" d="M15.258 95.808h3.063v1.242h-3.063z"/><path data-name="Прямоугольник 9" fill="#ff9c81" d="M190.882 103.87h1.237v3.078h-1.237z"/><path data-name="Прямоугольник 10" fill="#ff9c81" d="M190.882 110.104h1.237v3.078h-1.237z"/><path data-name="Прямоугольник 11" fill="#ff9c81" d="M186.848 107.885h3.063v1.242h-3.063z"/><path data-name="Прямоугольник 12" fill="#ff9c81" d="M193.052 107.885h3.063v1.242h-3.063z"/><path data-name="Контур 12" d="M93.436 37.745h59.5a9.928 9.928 0 0 1 9.821 10.033V169.3a9.928 9.928 0 0 1-9.821 10.033h-59.5a9.928 9.928 0 0 1-9.82-10.033V47.777a9.928 9.928 0 0 1 9.821-10.033" fill="#fff"/><path data-name="Контур 13" d="M93.436 37.745h59.5a9.928 9.928 0 0 1 9.821 10.033V169.3a9.928 9.928 0 0 1-9.821 10.033h-59.5a9.928 9.928 0 0 1-9.82-10.033V47.777a9.928 9.928 0 0 1 9.82-10.032Z" fill="none" stroke="#647c97" stroke-miterlimit="10" stroke-width=".826"/><path data-name="Контур 14" d="M108.681 45.939a1.643 1.643 0 1 1 1.643 1.651 1.647 1.647 0 0 1-1.643-1.651" fill="#fff"/><path data-name="Контур 15" d="M108.681 45.939a1.643 1.643 0 1 1 1.643 1.651 1.647 1.647 0 0 1-1.643-1.651Z" fill="none" stroke="#647c97" stroke-miterlimit="10" stroke-width=".815"/><path data-name="Контур 16" d="M129.935 47.511h-13.5a1.572 1.572 0 0 1 0-3.145h13.5a1.572 1.572 0 0 1 0 3.145" fill="#fff"/><path data-name="Контур 17" d="M129.935 47.511h-13.5a1.572 1.572 0 0 1 0-3.145h13.5a1.572 1.572 0 0 1 0 3.145Z" fill="none" stroke="#647c97" stroke-miterlimit="10" stroke-width=".837"/><rect data-name="Прямоугольник 13" width="71.453" height="107.169" rx="1.65" transform="translate(87.691 53.721)" fill="none" stroke="#647c97" stroke-miterlimit="10" stroke-width=".83"/><path data-name="Прямоугольник 14" fill="#e5e9ea" d="M154.417 54.53h3.833v106.567h-3.833z"/><path data-name="Контур 18" d="M137.71 93.365c-.116 1.72-1.421 3.473-3.352 2.688a3.347 3.347 0 0 1-1.99-3.1c-.016-.415-1.561-.128-1.539.414.2 5.134 8.088 4.578 8.413-.221.038-.554-1.5-.239-1.532.221" fill="#647c97"/><path data-name="Контур 19" d="M104.548 92.983c.209 5.285 8.088 5.072 8.433-.034.052-.772-1.511-.537-1.556.131-.1 1.492-1.135 3-2.811 2.775a3.056 3.056 0 0 1-2.51-3c-.031-.784-1.582-.525-1.556.131" fill="#647c97"/><path data-name="Контур 20" d="M111.589 111.506c2.086 3.529 7.02 4.383 10.763 4.165 3.511-.2 7.807-1.411 9.649-4.708.188-.336-1.284-.217-1.531.224-1.743 3.122-6.078 3.887-9.319 3.711-2.9-.158-6.437-1.121-8.023-3.806-.273-.463-1.737.08-1.539.414" fill="#647c97"/><path data-name="Контур 21" d="M102.276 104.857c-.232 2.408-1.877 4.218-3.675 4.043s-3.066-2.269-2.834-4.677 1.878-4.218 3.675-4.043 3.066 2.269 2.834 4.677" fill="#ff9c81"/><path data-name="Контур 22" d="M148.927 109.4c-.232 2.408-1.878 4.218-3.675 4.043s-3.066-2.269-2.834-4.677 1.877-4.218 3.675-4.043 3.066 2.269 2.834 4.677" fill="#ff9c81"/><path data-name="Контур 23" d="M126.873 173.841h-7.1a3.4 3.4 0 0 1-3.392-3.409v-.179a3.4 3.4 0 0 1 3.392-3.409h7.1a3.4 3.4 0 0 1 3.393 3.409v.179a3.4 3.4 0 0 1-3.393 3.409" fill="#fff"/><path data-name="Прямоугольник 15" d="M119.778 166.845h7.087a3.4 3.4 0 0 1 3.4 3.4v.2a3.4 3.4 0 0 1-3.4 3.4h-7.087a3.4 3.4 0 0 1-3.4-3.4v-.2a3.4 3.4 0 0 1 3.4-3.4Z" fill="none" stroke="#647c97" stroke-miterlimit="10" stroke-width=".892"/><path data-name="Прямоугольник 16" fill="#ff9c81" d="M29.478 149.354h1.237v3.078h-1.237z"/><path data-name="Прямоугольник 17" fill="#ff9c81" d="M29.478 155.587h1.237v3.078h-1.237z"/><path data-name="Прямоугольник 18" fill="#ff9c81" d="M25.444 153.368h3.063v1.242h-3.063z"/><path data-name="Прямоугольник 19" fill="#ff9c81" d="M31.648 153.368h3.063v1.242h-3.063z"/><path data-name="Прямоугольник 20" fill="#ff9c81" d="M63.359 34.672h1.237v3.078h-1.237z"/><path data-name="Прямоугольник 21" fill="#ff9c81" d="M63.359 40.905h1.237v3.078h-1.237z"/><path data-name="Прямоугольник 22" fill="#ff9c81" d="M59.324 38.687h3.063v1.242h-3.063z"/><path data-name="Прямоугольник 23" fill="#ff9c81" d="M65.528 38.687h3.063v1.242h-3.063z"/><path data-name="Прямоугольник 24" fill="#647c97" d="M51.321 113.942h1.237v3.078h-1.237z"/><path data-name="Прямоугольник 25" fill="#647c97" d="M51.321 120.175h1.237v3.078h-1.237z"/><path data-name="Прямоугольник 26" fill="#647c97" d="M47.287 117.956h3.063v1.242h-3.063z"/><path data-name="Прямоугольник 27" fill="#647c97" d="M53.491 117.956h3.063v1.242h-3.063z"/><path data-name="Контур 24" d="M82.147 30.146a.411.411 0 0 1-.33-.166 61.253 61.253 0 0 0-12.029-12.163.415.415 0 0 1-.08-.58.411.411 0 0 1 .577-.08 62.083 62.083 0 0 1 12.192 12.327.415.415 0 0 1-.083.58.408.408 0 0 1-.246.082" fill="#647c97"/><path data-name="Контур 25" d="M105.087 20.871a.413.413 0 0 1-.408-.361 61.621 61.621 0 0 0-4.538-16.529.412.412 0 1 1 .756-.33A62.452 62.452 0 0 1 105.5 20.4a.414.414 0 0 1-.356.464.392.392 0 0 1-.054 0" fill="#647c97"/><path data-name="Контур 26" d="M131.886 17.469a.392.392 0 0 1-.054 0 .414.414 0 0 1-.356-.464 62.46 62.46 0 0 1 4.6-16.753.413.413 0 1 1 .756.33 61.62 61.62 0 0 0-4.538 16.529.413.413 0 0 1-.408.361" fill="#647c97"/><path data-name="Контур 27" d="M160.184 25.9a.406.406 0 0 1-.184-.044.415.415 0 0 1-.184-.556 62.234 62.234 0 0 1 9.84-14.292.411.411 0 0 1 .582-.023.416.416 0 0 1 .023.585 61.4 61.4 0 0 0-9.709 14.1.412.412 0 0 1-.369.229" fill="#647c97"/><path data-name="Контур 28" d="M172.31 40.172a.41.41 0 0 1-.292-.122.416.416 0 0 1 0-.586 61.948 61.948 0 0 1 13.851-10.407.411.411 0 0 1 .56.164.415.415 0 0 1-.163.562A61.125 61.125 0 0 0 172.6 40.052a.41.41 0 0 1-.29.12" fill="#647c97"/><path data-name="Контур 29" d="M216.772 182.942h-74.485a7.354 7.354 0 0 1-7.336-7.371v-45.377a7.354 7.354 0 0 1 7.336-7.371h74.485a7.354 7.354 0 0 1 7.337 7.371v45.377a7.354 7.354 0 0 1-7.337 7.371" fill="#fff"/><path data-name="Контур 30" d="M218.475 184.654H143.99a7.354 7.354 0 0 1-7.337-7.371v-45.378a7.354 7.354 0 0 1 7.337-7.371h74.485a7.354 7.354 0 0 1 7.337 7.371v45.377a7.354 7.354 0 0 1-7.337 7.371" fill="#fff"/><path data-name="Контур 31" d="M216.771 183.284h-74.484a7.7 7.7 0 0 1-7.677-7.714v-45.376a7.7 7.7 0 0 1 7.677-7.714h74.485a7.7 7.7 0 0 1 7.677 7.714v45.377a7.7 7.7 0 0 1-7.677 7.714m-74.485-60.12a7.021 7.021 0 0 0-7 7.029v45.377a7.021 7.021 0 0 0 7 7.029h74.485a7.021 7.021 0 0 0 7-7.029v-45.377a7.021 7.021 0 0 0-7-7.029Z" fill="#647c97"/><path data-name="Контур 32" d="M216.771 183.284h-74.484a7.7 7.7 0 0 1-7.677-7.714v-45.376a7.7 7.7 0 0 1 7.677-7.714h74.485a7.7 7.7 0 0 1 7.677 7.714v45.377a7.7 7.7 0 0 1-7.678 7.713Zm-74.485-60.12a7.021 7.021 0 0 0-7 7.029v45.377a7.021 7.021 0 0 0 7 7.029h74.485a7.021 7.021 0 0 0 7-7.029v-45.376a7.021 7.021 0 0 0-7-7.029Z" fill="none" stroke="#647c97" stroke-miterlimit="10" stroke-width=".103"/><path data-name="Прямоугольник 28" fill="#c7e8ff" d="M136.868 138.269h89.158v16.597h-89.158z"/><path data-name="Контур 33" d="M224.108 153.281H134.95a.342.342 0 0 1-.341-.342v-16.6a.342.342 0 0 1 .341-.342h89.158a.342.342 0 0 1 .341.342v16.6a.342.342 0 0 1-.341.342m-88.817-.685h88.477v-15.912h-88.477Z" fill="#647c97"/><path data-name="Контур 34" d="M224.108 153.281H134.95a.342.342 0 0 1-.341-.342v-16.6a.342.342 0 0 1 .341-.342h89.158a.342.342 0 0 1 .341.342v16.6a.342.342 0 0 1-.341.342Zm-88.817-.685h88.477v-15.912h-88.477Z" fill="none" stroke="#647c97" stroke-miterlimit="10" stroke-width=".103"/><path data-name="Контур 35" d="M164.7 142.027a.926.926 0 1 1 .959-.926.944.944 0 0 1-.959.926" fill="#647c97"/><path data-name="Контур 36" d="M191.841 142.027a.926.926 0 1 1 .959-.926.944.944 0 0 1-.959.926" fill="#647c97"/><path data-name="Контур 37" d="M168.2 145.45c0 1.277-.772 2.311-1.725 2.311s-1.725-1.035-1.725-2.311.773-2.311 1.725-2.311 1.725 1.035 1.725 2.311" fill="#ff9c81"/><path data-name="Контур 38" d="M191.933 145.45c0 1.277-.772 2.311-1.725 2.311s-1.725-1.035-1.725-2.311.773-2.311 1.725-2.311 1.725 1.035 1.725 2.311" fill="#ff9c81"/><path data-name="Контур 39" d="M178.437 149.447a11.642 11.642 0 0 1-7.635-2.855.343.343 0 0 1-.035-.483.339.339 0 0 1 .481-.035 10.958 10.958 0 0 0 14.262.1.34.34 0 0 1 .48.042.343.343 0 0 1-.042.482 11.654 11.654 0 0 1-7.511 2.749" fill="#647c97"/><path data-name="Контур 40" d="M229.121 176.858a16.531 16.531 0 1 0-16.531 16.61 16.571 16.571 0 0 0 16.531-16.61" fill="#fff"/><path data-name="Контур 41" d="M230.825 178.57a16.531 16.531 0 1 0-16.531 16.61 16.571 16.571 0 0 0 16.531-16.61" fill="#4b97f9"/><path data-name="Контур 42" d="M212.59 193.81a16.952 16.952 0 1 1 16.872-16.952 16.931 16.931 0 0 1-16.872 16.952m0-33.219a16.268 16.268 0 1 0 16.191 16.267 16.248 16.248 0 0 0-16.191-16.267" fill="#647c97"/><path data-name="Контур 43" d="M212.59 193.81a16.952 16.952 0 1 1 16.872-16.952 16.931 16.931 0 0 1-16.872 16.952Zm0-33.219a16.268 16.268 0 1 0 16.191 16.267 16.248 16.248 0 0 0-16.191-16.267Z" fill="none" stroke="#647c97" stroke-miterlimit="10" stroke-width=".103"/><path data-name="Контур 44" d="M211.667 182.236a.552.552 0 0 1-.393-.164l-5-5.021a.56.56 0 0 1 0-.79.554.554 0 0 1 .786 0l4.605 4.627 9.285-9.329a.553.553 0 0 1 .786 0 .56.56 0 0 1 0 .789l-9.678 9.724a.552.552 0 0 1-.393.164" fill="#fff"/><path data-name="Контур 45" d="M220.694 133.635a.341.341 0 0 1-.341-.342v-1.883a5.08 5.08 0 0 0-.03-.55.341.341 0 1 1 .677-.075 5.732 5.732 0 0 1 .034.626v1.883a.341.341 0 0 1-.341.342" fill="#647c97"/><path data-name="Контур 46" d="M220.694 133.635a.341.341 0 0 1-.341-.342v-1.883a5.08 5.08 0 0 0-.03-.55.341.341 0 1 1 .677-.075 5.732 5.732 0 0 1 .034.626v1.883a.341.341 0 0 1-.34.341Z" fill="none" stroke="#647c97" stroke-miterlimit="10" stroke-width=".103"/><path data-name="Контур 47" d="M220.267 129.658a.341.341 0 0 1-.313-.207 4.99 4.99 0 0 0-.387-.729.343.343 0 0 1 .1-.473.34.34 0 0 1 .471.1 5.635 5.635 0 0 1 .441.83.343.343 0 0 1-.178.45.336.336 0 0 1-.134.028" fill="#647c97"/><path data-name="Контур 48" d="M220.267 129.658a.341.341 0 0 1-.313-.207 4.99 4.99 0 0 0-.387-.729.343.343 0 0 1 .1-.473.34.34 0 0 1 .471.1 5.635 5.635 0 0 1 .441.83.343.343 0 0 1-.178.45.336.336 0 0 1-.134.029Z" fill="none" stroke="#647c97" stroke-miterlimit="10" stroke-width=".103"/><path data-name="Контур 49" d="M218.991 127.85a.34.34 0 0 1-.231-.09 4.937 4.937 0 0 0-2.158-1.168.342.342 0 0 1 .163-.665 5.617 5.617 0 0 1 2.456 1.329.344.344 0 0 1 .02.484.339.339 0 0 1-.251.11" fill="#647c97"/><path data-name="Контур 50" d="M218.991 127.85a.34.34 0 0 1-.231-.09 4.937 4.937 0 0 0-2.158-1.168.342.342 0 0 1 .163-.665 5.617 5.617 0 0 1 2.456 1.329.344.344 0 0 1 .02.484.339.339 0 0 1-.25.11Z" fill="none" stroke="#647c97" stroke-miterlimit="10" stroke-width=".103"/><path data-name="Контур 51" d="M138.335 166.688a.341.341 0 0 1-.341-.342v-5.384a.341.341 0 1 1 .681 0v5.384a.341.341 0 0 1-.341.342" fill="#647c97"/><path data-name="Контур 52" d="M138.335 166.688a.341.341 0 0 1-.341-.342v-5.384a.341.341 0 1 1 .681 0v5.384a.341.341 0 0 1-.34.342Z" fill="none" stroke="#647c97" stroke-miterlimit="10" stroke-width=".103"/><path data-name="Контур 53" d="M138.335 170.226a.341.341 0 0 1-.341-.342v-1.369a.341.341 0 1 1 .681 0v1.369a.341.341 0 0 1-.341.342" fill="#647c97"/><path data-name="Контур 54" d="M138.335 170.226a.341.341 0 0 1-.341-.342v-1.369a.341.341 0 1 1 .681 0v1.369a.341.341 0 0 1-.34.342Z" fill="none" stroke="#647c97" stroke-miterlimit="10" stroke-width=".103"/><path data-name="Контур 55" d="M178.843 179.768h-5.621a.342.342 0 0 1 0-.685h5.621a.342.342 0 0 1 0 .685" fill="#647c97"/><path data-name="Контур 56" d="M178.843 179.768h-5.621a.342.342 0 0 1 0-.685h5.621a.342.342 0 0 1 0 .685Z" fill="none" stroke="#647c97" stroke-miterlimit="10" stroke-width=".103"/><path data-name="Контур 57" d="M171.12 179.768h-3.975a.342.342 0 0 1 0-.685h3.975a.342.342 0 0 1 0 .685" fill="#647c97"/><path data-name="Контур 58" d="M171.12 179.768h-3.975a.342.342 0 0 1 0-.685h3.975a.342.342 0 0 1 0 .685Z" fill="none" stroke="#647c97" stroke-miterlimit="10" stroke-width=".103"/><path data-name="Контур 59" d="M159.9 179.768h-7.477a.342.342 0 0 1 0-.685h7.477a.342.342 0 0 1 0 .685" fill="#647c97"/><path data-name="Контур 60" d="M159.9 179.768h-7.477a.342.342 0 0 1 0-.685h7.477a.342.342 0 0 1 0 .685Z" fill="none" stroke="#647c97" stroke-miterlimit="10" stroke-width=".103"/></g></g></svg>