<svg data-name="Векторный смарт-объект" xmlns="http://www.w3.org/2000/svg" width="260" height="180" viewBox="0 0 260 180"><defs><clipPath id="a"><path data-name="Прямоугольник 59" fill="none" d="M0 0h260v180H0z"/></clipPath></defs><g data-name="Сгруппировать 4"><g data-name="Сгруппировать 3" clip-path="url(#a)"><path data-name="Контур 61" d="M71.3 177.179c-5.264-.847-68.507-8.476-63.852-64.739s10.5-73.183 35.087-79.374 84.359-35.482 131.265-7.63 97.511 52.833 77.428 97.3-23.372 59.306-75.772 57.037-79.121 1.429-104.15-2.6" fill="#f0f6fa"/><path data-name="Контур 62" d="M19.525 54.772h88.749a5.873 5.873 0 0 1 5.849 5.862v2.351a5.873 5.873 0 0 1-5.849 5.862H19.525a5.873 5.873 0 0 1-5.849-5.862v-2.35a5.873 5.873 0 0 1 5.849-5.862" fill="#fff"/><path data-name="Контур 63" d="M12.259 73.706h35.582a5.613 5.613 0 0 1 0 11.226H12.259a5.613 5.613 0 0 1 0-11.226" fill="#fff"/><path data-name="Контур 64" d="M5.6 39.19h35.583a5.613 5.613 0 0 1 0 11.226H5.6a5.613 5.613 0 0 1 0-11.226" fill="#fff"/><path data-name="Контур 65" d="M24.292 49.969c1.735 0 3.141 1.075 3.141 2.4s-1.406 2.4-3.141 2.4H38c-1.735 0-3.141-1.075-3.141-2.4s1.406-2.4 3.141-2.4Z" fill="#fff"/><path data-name="Контур 66" d="M19.852 68.692c1.811 0 3.279 1.122 3.279 2.507s-1.468 2.507-3.279 2.507h14.306c-1.811 0-3.279-1.122-3.279-2.507s1.468-2.507 3.279-2.507Z" fill="#fff"/><path data-name="Контур 67" d="M240.475 92.852h-88.748a5.873 5.873 0 0 1-5.849-5.862v-2.351a5.873 5.873 0 0 1 5.849-5.862h88.749a5.873 5.873 0 0 1 5.849 5.862v2.351a5.873 5.873 0 0 1-5.849 5.862" fill="#fff"/><path data-name="Контур 68" d="M247.741 73.918h-35.582a5.613 5.613 0 0 1 0-11.226h35.582a5.613 5.613 0 0 1 0 11.226" fill="#fff"/><path data-name="Контур 69" d="M254.4 108.435h-35.583a5.613 5.613 0 0 1 0-11.226H254.4a5.613 5.613 0 0 1 0 11.226" fill="#fff"/><path data-name="Контур 70" d="M235.708 97.655c-1.735 0-3.141-1.075-3.141-2.4s1.406-2.4 3.141-2.4H222c1.735 0 3.141 1.075 3.141 2.4s-1.406 2.4-3.141 2.4Z" fill="#fff"/><path data-name="Контур 71" d="M240.148 78.932c-1.811 0-3.279-1.122-3.279-2.507s1.468-2.507 3.279-2.507h-14.306c1.811 0 3.279 1.122 3.279 2.507s-1.468 2.507-3.279 2.507Z" fill="#fff"/><path data-name="Контур 72" d="m74.029 174.33 105.373.323a2.206 2.206 0 0 0 2.211-2.208V99.589a2.206 2.206 0 0 0-2.2-2.208H76.756c-3.544.068-4.72 2.432-4.774 4.288v.119l-.089 68.027a12.949 12.949 0 0 0 .394 2.706c.312.88.734 1.776.734 1.776Z" fill="#fff"/><path data-name="Контур 73" d="M179.41 175.065h-.01l-105.373-.323h-.012l-1.007-.031a.412.412 0 0 1-.359-.236 21.942 21.942 0 0 1-.75-1.815 13.092 13.092 0 0 1-.418-2.825l.09-68.168c.062-2.129 1.454-4.628 5.178-4.7h102.66a2.621 2.621 0 0 1 2.615 2.621v72.855a2.617 2.617 0 0 1-2.615 2.621m-105.373-1.147 105.368.323h.006a1.793 1.793 0 0 0 1.791-1.8V99.589a1.8 1.8 0 0 0-1.791-1.8H76.756c-3.133.06-4.309 2.048-4.362 3.888v.109l-.094 68.031a12.618 12.618 0 0 0 .371 2.568c.208.589.471 1.192.614 1.509Z" fill="#647c97"/><path data-name="Контур 74" d="M145.994 45.937v79.253a8.877 8.877 0 0 1-8.867 8.886H89.886a8.877 8.877 0 0 1-8.867-8.886V45.937a8.877 8.877 0 0 1 8.867-8.886h47.241a8.877 8.877 0 0 1 8.867 8.886" fill="#fff"/><path data-name="Контур 75" d="M148.558 44.083v79.253a8.877 8.877 0 0 1-8.867 8.886H92.45a8.877 8.877 0 0 1-8.867-8.886V44.083A8.877 8.877 0 0 1 92.45 35.2h47.241a8.877 8.877 0 0 1 8.867 8.886" fill="#c7e8ff"/><path data-name="Контур 76" d="M137.127 134.489H89.886a9.3 9.3 0 0 1-9.279-9.3V45.937a9.3 9.3 0 0 1 9.279-9.3h47.241a9.3 9.3 0 0 1 9.279 9.3v79.253a9.3 9.3 0 0 1-9.279 9.3M89.886 37.463a8.474 8.474 0 0 0-8.455 8.474v79.253a8.474 8.474 0 0 0 8.455 8.474h47.241a8.474 8.474 0 0 0 8.455-8.474V45.937a8.474 8.474 0 0 0-8.455-8.474Z" fill="#647c97"/><path data-name="Прямоугольник 30" fill="#fff" d="M98.427 34.964h17.937v97.025H98.427z"/><path data-name="Контур 77" d="M113.567 134.489H95.63a.412.412 0 0 1-.412-.413V37.051a.412.412 0 0 1 .412-.413h17.937a.412.412 0 0 1 .412.413v97.025a.412.412 0 0 1-.412.413m-17.525-.825h17.113v-96.2H96.042Z" fill="#647c97"/><path data-name="Контур 78" d="m189.743 84.928-56.433 56.555a8.854 8.854 0 0 1-12.54 0L87.021 107.66a8.9 8.9 0 0 1 0-12.567l56.433-56.555a8.854 8.854 0 0 1 12.54 0l33.749 33.822a8.9 8.9 0 0 1 0 12.567" fill="#fff"/><path data-name="Контур 79" d="m191.95 84.928-56.433 56.555a8.854 8.854 0 0 1-12.54 0L89.228 107.66a8.9 8.9 0 0 1 0-12.567l56.433-56.555a8.854 8.854 0 0 1 12.54 0l33.749 33.823a8.9 8.9 0 0 1 0 12.567" fill="#c7e8ff"/><path data-name="Контур 80" d="M127.04 144.5a9.208 9.208 0 0 1-6.561-2.724L86.73 107.952a9.323 9.323 0 0 1 0-13.151l56.433-56.555a9.264 9.264 0 0 1 13.122 0l33.749 33.822a9.312 9.312 0 0 1 0 13.151L133.6 141.774a9.208 9.208 0 0 1-6.561 2.724m22.685-108.149a8.391 8.391 0 0 0-5.979 2.482L87.312 95.385a8.5 8.5 0 0 0 0 11.983l33.749 33.822a8.443 8.443 0 0 0 11.958 0l56.433-56.555a8.486 8.486 0 0 0 0-11.983L155.7 38.831a8.391 8.391 0 0 0-5.979-2.482" fill="#647c97"/><path data-name="Контур 81" d="M97.453 96.428a.413.413 0 0 1-.291-.7l19.2-19.244a.412.412 0 0 1 .582.584l-19.2 19.244a.409.409 0 0 1-.291.121" fill="#647c97"/><path data-name="Контур 82" d="M92.309 101.583a.413.413 0 0 1-.291-.7l3.72-3.728a.412.412 0 1 1 .582.584l-3.72 3.728a.409.409 0 0 1-.291.121" fill="#647c97"/><path data-name="Контур 83" d="M155.687 50.527a8.507 8.507 0 1 0 0 12.043 8.485 8.485 0 0 0 0-12.043" fill="#fff"/><path data-name="Контур 84" d="M151.237 54.987a8.507 8.507 0 1 0 0 12.043 8.485 8.485 0 0 0 0-12.043" fill="#fff"/><path data-name="Контур 85" d="M153.907 62.983a.413.413 0 0 1-.291-.7 8.095 8.095 0 1 0-11.435-11.46.412.412 0 0 1-.582-.584 8.919 8.919 0 0 1 12.6 12.627.41.41 0 0 1-.291.121" fill="#647c97"/><path data-name="Контур 86" d="M143.448 69.938a8.919 8.919 0 1 1 6.3-2.615 8.841 8.841 0 0 1-6.3 2.615m0-17.032a8.094 8.094 0 1 0 5.717 2.373 8.024 8.024 0 0 0-5.717-2.373" fill="#647c97"/><path data-name="Контур 87" d="m121.478 104.947-9.35 9.37a3.334 3.334 0 0 1-4.722 0l-5.862-5.874a3.351 3.351 0 0 1 0-4.732l9.35-9.37a3.334 3.334 0 0 1 4.722 0l5.862 5.874a3.351 3.351 0 0 1 0 4.732" fill="#fff"/><path data-name="Контур 88" d="M107.9 115.824a3.722 3.722 0 0 1-2.652-1.1l-5.862-5.874a3.769 3.769 0 0 1 0-5.316l9.35-9.37a3.745 3.745 0 0 1 5.3 0l5.862 5.874a3.769 3.769 0 0 1 0 5.316l-9.35 9.37a3.722 3.722 0 0 1-2.652 1.1m3.488-21.937a2.906 2.906 0 0 0-2.07.859l-9.35 9.37a2.942 2.942 0 0 0 0 4.149l5.862 5.874a2.923 2.923 0 0 0 4.14 0l9.35-9.37a2.939 2.939 0 0 0 0-4.149l-5.862-5.874a2.9 2.9 0 0 0-2.07-.859" fill="#647c97"/><path data-name="Контур 89" d="M132.944 73.7a1.01 1.01 0 1 1 1.454.029 1.034 1.034 0 0 1-1.454-.029" fill="#647c97"/><path data-name="Контур 90" d="M153.937 94.737a1.01 1.01 0 1 1 1.454.029 1.034 1.034 0 0 1-1.454-.029" fill="#647c97"/><path data-name="Контур 91" d="M133.015 79.051c-.983.985-2.377 1.185-3.114.446s-.538-2.136.445-3.121 2.377-1.185 3.114-.446.538 2.136-.445 3.121" fill="#ff9c81"/><path data-name="Контур 92" d="M151.373 97.449c-.983.985-2.377 1.185-3.114.446s-.538-2.136.445-3.121 2.377-1.185 3.114-.446.538 2.136-.445 3.121" fill="#ff9c81"/><path data-name="Контур 93" d="M145.814 93.813h-.036a12.83 12.83 0 0 1-11.671-11.86.412.412 0 1 1 .821-.06 12.005 12.005 0 0 0 10.921 11.1.413.413 0 0 1-.035.824" fill="#647c97"/><path data-name="Контур 94" d="M126.425 135.772a.413.413 0 0 1-.291-.7L139 122.169a.412.412 0 0 1 .582.584l-12.871 12.9a.409.409 0 0 1-.291.121" fill="#647c97"/><path data-name="Контур 95" d="M172.084 90.014a.413.413 0 0 1-.291-.7l12.871-12.9a.412.412 0 0 1 .582.584l-12.871 12.9a.41.41 0 0 1-.291.121" fill="#647c97"/><path data-name="Контур 96" d="M156.817 105.314a.413.413 0 0 1-.291-.7L169.4 91.71a.412.412 0 0 1 .582.584l-12.871 12.9a.41.41 0 0 1-.291.121" fill="#647c97"/><path data-name="Контур 97" d="M141.612 120.552a.413.413 0 0 1-.291-.7l12.871-12.9a.412.412 0 0 1 .582.584l-12.871 12.9a.41.41 0 0 1-.291.121" fill="#647c97"/><path data-name="Контур 98" d="m71.893 169.816.089-68.027.092-.615s.592 1.36 2.785 1.241h99.326a2.053 2.053 0 0 1 2.051 2.055v72.724a2.053 2.053 0 0 1-2.051 2.055H81.306a9.423 9.423 0 0 1-9.413-9.433" fill="#fff"/><path data-name="Контур 99" d="M174.185 179.662H81.306a9.846 9.846 0 0 1-9.825-9.846l.089-68.027a.376.376 0 0 1 0-.061l.092-.615a.412.412 0 0 1 .785-.1c.019.04.531 1.093 2.385.994h99.348a2.468 2.468 0 0 1 2.463 2.468v72.724a2.468 2.468 0 0 1-2.463 2.468M72.3 169.816a9.021 9.021 0 0 0 9 9.02h92.879a1.643 1.643 0 0 0 1.639-1.642V104.47a1.643 1.643 0 0 0-1.639-1.642H74.87a3.609 3.609 0 0 1-2.476-.661l-.089 67.65Z" fill="#647c97"/><path data-name="Контур 100" d="M182.508 133.57h-25.44l-4.616 4.626a5.2 5.2 0 0 0 .173 7.51l4.2 3.839h25.682Z" fill="#fff"/><path data-name="Контур 101" d="M182.508 149.96h-25.682a.411.411 0 0 1-.278-.108l-4.2-3.839a5.614 5.614 0 0 1-.187-8.107l4.616-4.626a.412.412 0 0 1 .291-.121h4.978a.413.413 0 0 1 0 .825h-4.807l-4.5 4.506a4.788 4.788 0 0 0 .159 6.914l4.084 3.731H182.1v-15.152h-14.962a.413.413 0 0 1 0-.825h15.37a.412.412 0 0 1 .412.413v15.976a.412.412 0 0 1-.412.413" fill="#647c97"/><path data-name="Контур 102" d="M164.615 145.44a3.7 3.7 0 1 1 3.692-3.7 3.7 3.7 0 0 1-3.692 3.7m0-6.575a2.875 2.875 0 1 0 2.868 2.875 2.875 2.875 0 0 0-2.868-2.875" fill="#647c97"/><path data-name="Контур 103" d="M110.6 142.934a1.956 1.956 0 0 1-1.322-.71 1.916 1.916 0 0 1 .22-2.692 1.835 1.835 0 0 1 1.395-.406 1.951 1.951 0 0 1 1.284.706 1.916 1.916 0 0 1-.22 2.692 1.841 1.841 0 0 1-1.357.41" fill="#647c97"/><path data-name="Контур 104" d="M136.417 141.8a1.956 1.956 0 0 1-1.322-.71 1.88 1.88 0 1 1 2.9-2.392 1.958 1.958 0 0 1 .445 1.4 1.838 1.838 0 0 1-2.022 1.7" fill="#647c97"/><path data-name="Контур 105" d="M117.171 153.671a2.259 2.259 0 0 0-2.122 2.934 10.118 10.118 0 0 0 19.4-.251 2.263 2.263 0 0 0-2.2-2.882Z" fill="#647c97"/><path data-name="Контур 106" d="M104.542 152.224c-.224 2.321-1.814 4.065-3.551 3.9s-2.962-2.186-2.738-4.507 1.814-4.065 3.551-3.9 2.962 2.186 2.738 4.507" fill="#ff9c81"/><path data-name="Контур 107" d="M149.614 156.6c-.224 2.321-1.814 4.065-3.551 3.9s-2.962-2.186-2.738-4.507 1.814-4.065 3.551-3.9 2.962 2.186 2.738 4.507" fill="#ff9c81"/><path data-name="Контур 108" d="M172.082 129.109a.412.412 0 0 1-.412-.413v-11.748a.412.412 0 1 1 .824 0V128.7a.412.412 0 0 1-.412.413" fill="#647c97"/><path data-name="Контур 109" d="M136.989 175.429h-5.711a.413.413 0 0 1 0-.825h5.711a.413.413 0 0 1 0 .825" fill="#647c97"/><path data-name="Контур 110" d="M152.832 175.429h-8.989a.413.413 0 0 1 0-.825h8.989a.413.413 0 0 1 0 .825" fill="#647c97"/><path data-name="Контур 111" d="M121.3 175.429H95.1a.413.413 0 0 1 0-.825h26.2a.413.413 0 0 1 0 .825" fill="#647c97"/><path data-name="Контур 112" d="M75.97 137.61a.412.412 0 0 1-.412-.413V115.74a.412.412 0 1 1 .824 0v21.46a.412.412 0 0 1-.412.413" fill="#647c97"/><path data-name="Контур 113" d="M75.727 154.639a.412.412 0 0 1-.412-.413v-7.813a.412.412 0 1 1 .824 0v7.813a.412.412 0 0 1-.412.413" fill="#647c97"/><path data-name="Контур 114" d="M82.071 30.041a.411.411 0 0 1-.33-.165 61.116 61.116 0 0 0-12.018-12.12.412.412 0 0 1 .5-.658A61.944 61.944 0 0 1 82.4 29.381a.413.413 0 0 1-.083.578.408.408 0 0 1-.246.082" fill="#647c97"/><path data-name="Контур 115" d="M104.991 20.8a.412.412 0 0 1-.408-.36 61.282 61.282 0 0 0-4.534-16.472.412.412 0 1 1 .755-.329 62.108 62.108 0 0 1 4.6 16.694.412.412 0 0 1-.355.462.393.393 0 0 1-.054 0" fill="#647c97"/><path data-name="Контур 116" d="M131.764 17.408a.393.393 0 0 1-.054 0 .412.412 0 0 1-.355-.462 62.116 62.116 0 0 1 4.6-16.694.412.412 0 1 1 .756.329 61.283 61.283 0 0 0-4.534 16.472.412.412 0 0 1-.408.36" fill="#647c97"/><path data-name="Контур 117" d="M160.036 25.809a.406.406 0 0 1-.184-.044.413.413 0 0 1-.184-.554 62.012 62.012 0 0 1 9.83-14.242.412.412 0 0 1 .605.56 61.184 61.184 0 0 0-9.7 14.052.411.411 0 0 1-.368.228" fill="#647c97"/><path data-name="Контур 118" d="M172.151 40.032a.413.413 0 0 1-.29-.705A61.878 61.878 0 0 1 185.7 28.956a.413.413 0 0 1 .4.724 61.056 61.056 0 0 0-13.655 10.233.41.41 0 0 1-.29.12" fill="#647c97"/><path data-name="Прямоугольник 31" fill="#647c97" d="M200.771 41.314h1.235v3.067h-1.235z"/><path data-name="Прямоугольник 32" fill="#647c97" d="M200.771 47.526h1.235v3.067h-1.235z"/><path data-name="Прямоугольник 33" fill="#647c97" d="M196.74 45.315h3.06v1.238h-3.06z"/><path data-name="Прямоугольник 34" fill="#647c97" d="M202.939 45.315h3.06v1.238h-3.06z"/><path data-name="Прямоугольник 35" fill="#647c97" d="M13.076 91.472h1.235v3.067h-1.235z"/><path data-name="Прямоугольник 36" fill="#647c97" d="M13.076 97.684h1.235v3.067h-1.235z"/><path data-name="Прямоугольник 37" fill="#647c97" d="M9.046 95.473h3.06v1.238h-3.06z"/><path data-name="Прямоугольник 38" fill="#647c97" d="M15.244 95.473h3.06v1.238h-3.06z"/><path data-name="Прямоугольник 39" fill="#ff9c81" d="M197.71 118.183h1.235v3.067h-1.235z"/><path data-name="Прямоугольник 40" fill="#ff9c81" d="M197.71 124.395h1.235v3.067h-1.235z"/><path data-name="Прямоугольник 41" fill="#ff9c81" d="M193.68 122.184h3.06v1.238h-3.06z"/><path data-name="Прямоугольник 42" fill="#ff9c81" d="M199.878 122.184h3.06v1.238h-3.06z"/><path data-name="Прямоугольник 43" fill="#ff9c81" d="M29.451 148.832h1.235v3.067h-1.235z"/><path data-name="Прямоугольник 44" fill="#ff9c81" d="M29.451 155.043h1.235v3.067h-1.235z"/><path data-name="Прямоугольник 45" fill="#ff9c81" d="M25.42 152.832h3.06v1.238h-3.06z"/><path data-name="Прямоугольник 46" fill="#ff9c81" d="M31.619 152.832h3.06v1.238h-3.06z"/><path data-name="Прямоугольник 47" fill="#ff9c81" d="M63.3 34.551h1.235v3.067H63.3z"/><path data-name="Прямоугольник 48" fill="#ff9c81" d="M63.3 40.762h1.235v3.067H63.3z"/><path data-name="Прямоугольник 49" fill="#ff9c81" d="M59.27 38.551h3.06v1.238h-3.06z"/><path data-name="Прямоугольник 50" fill="#ff9c81" d="M65.468 38.551h3.06v1.238h-3.06z"/><path data-name="Прямоугольник 51" fill="#647c97" d="M51.274 113.544h1.235v3.067h-1.235z"/><path data-name="Прямоугольник 52" fill="#647c97" d="M51.274 119.755h1.235v3.067h-1.235z"/><path data-name="Прямоугольник 53" fill="#647c97" d="M47.244 117.544h3.06v1.238h-3.06z"/><path data-name="Прямоугольник 54" fill="#647c97" d="M53.442 117.544h3.06v1.238h-3.06z"/><path data-name="Прямоугольник 55" fill="#647c97" d="M218.732 157.933h1.235V161h-1.235z"/><path data-name="Прямоугольник 56" fill="#647c97" d="M218.732 164.144h1.235v3.067h-1.235z"/><path data-name="Прямоугольник 57" fill="#647c97" d="M214.701 161.933h3.06v1.238h-3.06z"/><path data-name="Прямоугольник 58" fill="#647c97" d="M220.9 161.933h3.06v1.238h-3.06z"/></g></g></svg>