<svg xmlns="http://www.w3.org/2000/svg" width="474.84" height="419.933" viewBox="0 0 474.84 419.933"><defs><clipPath id="a"><path data-name="Прямоугольник 8" fill="none" d="M0 0h474.84v419.933H0z"/></clipPath></defs><g data-name="Сгруппировать 2"><g data-name="Сгруппировать 1" clip-path="url(#a)"><path data-name="Контур 1" d="M124.357 411.662c-10-2.131-130.092-21.332-121.251-162.938S23.042 64.531 69.734 48.95s160.191-89.3 249.254-19.2 185.169 132.973 147.032 244.9-44.383 149.264-143.887 143.55-150.246 3.6-197.776-6.54" fill="#f5f9fc"/><path data-name="Контур 2" d="M49.256 172.17h223.89a14.8 14.8 0 0 1 14.754 14.753v5.917a14.8 14.8 0 0 1-14.757 14.753H49.256A14.8 14.8 0 0 1 34.5 192.84v-5.917a14.8 14.8 0 0 1 14.756-14.753" fill="#fff"/><path data-name="Контур 3" d="M30.925 219.823h89.764a14.127 14.127 0 1 1 0 28.255H30.925a14.127 14.127 0 1 1 0-28.255" fill="#fff"/><path data-name="Контур 4" d="M14.13 132.951h89.764a14.17 14.17 0 0 1 14.13 14.127 14.17 14.17 0 0 1-14.13 14.127H14.13A14.17 14.17 0 0 1 0 147.078a14.17 14.17 0 0 1 14.13-14.127" fill="#fff"/><path data-name="Контур 5" d="M61.281 160.081c4.376 0 7.924 2.706 7.924 6.045s-3.548 6.045-7.924 6.045h34.574c-4.376 0-7.924-2.706-7.924-6.045s3.548-6.045 7.924-6.045Z" fill="#fff"/><path data-name="Контур 6" d="M50.081 207.2c4.568 0 8.271 2.825 8.271 6.309s-3.7 6.309-8.271 6.309h36.09c-4.568 0-8.271-2.825-8.271-6.309s3.7-6.309 8.271-6.309Z" fill="#fff"/><path data-name="Контур 7" d="M456.77 127.922H238.077a14.8 14.8 0 0 1-14.757-14.754v-5.916A14.8 14.8 0 0 1 238.077 92.5H456.77a14.8 14.8 0 0 1 14.757 14.753v5.916a14.8 14.8 0 0 1-14.757 14.754" fill="#fff"/><path data-name="Контур 8" d="M460.71 167.141h-53.381a14.127 14.127 0 1 1 0-28.255h53.381a14.127 14.127 0 1 1 0 28.255" fill="#fff"/><path data-name="Контур 9" d="M449.941 140.011c-4.376 0-7.924-2.706-7.924-6.045s3.548-6.045 7.924-6.045h-34.573c4.376 0 7.924 2.706 7.924 6.045s-3.548 6.045-7.924 6.045Z" fill="#fff"/><path data-name="Контур 10" d="M455.943 92.887c-4.568 0-8.271-2.825-8.271-6.309s3.7-6.309 8.271-6.309h-30.891c4.568 0 8.271 2.825 8.271 6.309s-3.7 6.309-8.271 6.309Z" fill="#fff"/><path data-name="Контур 11" d="M435.417 418.983H286.1V231.018a17.974 17.974 0 0 1 17.976-17.972h113.366a17.974 17.974 0 0 1 17.975 17.972Z" fill="#fff"/><path data-name="Контур 12" d="M435.417 415.232a1.039 1.039 0 0 1-1.039-1.039V231.814a17.508 17.508 0 0 0-17.49-17.487H304.627a17.508 17.508 0 0 0-17.49 17.487v182.379a1.039 1.039 0 0 1-2.078 0V231.814a19.588 19.588 0 0 1 19.567-19.564h112.262a19.588 19.588 0 0 1 19.568 19.564v182.379a1.039 1.039 0 0 1-1.039 1.039" fill="#6a79a8"/><path data-name="Контур 13" d="M427.146 415.232a1.039 1.039 0 0 1-1.039-1.039V245.841h-130.7v168.352a1.039 1.039 0 0 1-2.078 0V244.8a1.039 1.039 0 0 1 1.039-1.039h132.778a1.039 1.039 0 0 1 1.039 1.039v169.39a1.039 1.039 0 0 1-1.039 1.039" fill="#6a79a8"/><path data-name="Контур 14" d="M410.435 232.218h-1.521a3.552 3.552 0 0 1-3.549-3.548v-.477a3.552 3.552 0 0 1 3.549-3.548h1.521a3.552 3.552 0 0 1 3.549 3.548v.477a3.553 3.553 0 0 1-3.549 3.548m-1.521-5.5a1.473 1.473 0 0 0-1.471 1.471v.477a1.473 1.473 0 0 0 1.471 1.471h1.521a1.473 1.473 0 0 0 1.471-1.471v-.477a1.473 1.473 0 0 0-1.471-1.471Z" fill="#6a79a8"/><path data-name="Контур 15" d="M374.091 232.218H347.34a3.087 3.087 0 0 1-3.084-3.083v-1.406a3.087 3.087 0 0 1 3.084-3.083h26.751a3.087 3.087 0 0 1 3.084 3.083v1.406a3.088 3.088 0 0 1-3.084 3.083m-26.751-5.5a1.007 1.007 0 0 0-1.006 1.006v1.406a1.008 1.008 0 0 0 1.006 1.006h26.751a1.008 1.008 0 0 0 1.007-1.006v-1.406a1.008 1.008 0 0 0-1.007-1.006Z" fill="#6a79a8"/><path data-name="Контур 16" d="M367.181 411.624a1.039 1.039 0 0 1-1.039-1.039V396.78a1.039 1.039 0 0 1 1.039-1.039h10.641a1.039 1.039 0 1 1 0 2.077h-9.6v12.766a1.039 1.039 0 0 1-1.039 1.039" fill="#6a79a8"/><path data-name="Контур 17" d="M377.822 387.2h-10.641a1.039 1.039 0 0 1-1.039-1.039V371.7a1.039 1.039 0 0 1 2.078 0v13.427h9.6a1.039 1.039 0 1 1 0 2.077" fill="#6a79a8"/><path data-name="Контур 18" d="M377.823 365.961h-2.717a1.039 1.039 0 1 1 0-2.077h2.717a1.039 1.039 0 1 1 0 2.077" fill="#6a79a8"/><path data-name="Контур 19" d="M377.822 355.341h-10.641a1.039 1.039 0 0 1-1.039-1.039v-21.238a1.039 1.039 0 0 1 1.039-1.039h10.641a1.039 1.039 0 1 1 0 2.077h-9.6v19.162h9.6a1.039 1.039 0 1 1 0 2.077" fill="#6a79a8"/><path data-name="Прямоугольник 1" fill="#fff0a9" d="M333.86 335.719h14.774v21.238H333.86z"/><path data-name="Контур 20" d="M345.979 355.341h-12.118a1.039 1.039 0 1 1 0-2.077h11.079V334.1h-11.079a1.039 1.039 0 1 1 0-2.077h12.118a1.039 1.039 0 0 1 1.039 1.039V354.3a1.039 1.039 0 0 1-1.039 1.039" fill="#6a79a8"/><path data-name="Прямоугольник 2" fill="#fff0a9" d="M333.86 272.003h14.774v21.239H333.86z"/><path data-name="Контур 21" d="M345.979 291.625h-12.118a1.039 1.039 0 1 1 0-2.077h11.079v-19.162h-11.079a1.039 1.039 0 1 1 0-2.077h12.118a1.039 1.039 0 0 1 1.039 1.039v21.238a1.039 1.039 0 0 1-1.039 1.039" fill="#6a79a8"/><path data-name="Прямоугольник 3" fill="#fff0a9" d="M369.837 303.861h10.641v21.238h-10.641z"/><path data-name="Контур 22" d="M377.822 323.483h-10.641a1.038 1.038 0 0 1-1.039-1.039v-21.238a1.038 1.038 0 0 1 1.039-1.039h15.294a1.039 1.039 0 1 1 0 2.077H368.22v19.161h9.6a1.039 1.039 0 1 1 0 2.077" fill="#6a79a8"/><path data-name="Контур 23" d="M388.464 291.625H372.3a1.039 1.039 0 1 1 0-2.077h15.122v-19.162h-19.2V282a1.039 1.039 0 0 1-2.078 0v-12.652a1.039 1.039 0 0 1 1.039-1.039h21.283a1.039 1.039 0 0 1 1.039 1.039v21.238a1.039 1.039 0 0 1-1.039 1.039" fill="#6a79a8"/><path data-name="Контур 24" d="M345.979 323.483h-12.118a1.039 1.039 0 1 1 0-2.077h11.079v-19.161h-11.079a1.039 1.039 0 1 1 0-2.077h12.118a1.039 1.039 0 0 1 1.039 1.039v21.238a1.039 1.039 0 0 1-1.039 1.039" fill="#6a79a8"/><path data-name="Контур 25" d="M345.979 387.349h-12.118a1.039 1.039 0 1 1 0-2.077h11.079V366.11h-11.079a1.039 1.039 0 1 1 0-2.077h12.118a1.039 1.039 0 0 1 1.039 1.039v21.239a1.039 1.039 0 0 1-1.039 1.039" fill="#6a79a8"/><path data-name="Контур 26" d="M345.979 411.624a1.039 1.039 0 0 1-1.039-1.039v-12.766h-11.079a1.039 1.039 0 1 1 0-2.077h12.118a1.039 1.039 0 0 1 1.039 1.039v13.805a1.039 1.039 0 0 1-1.039 1.039" fill="#6a79a8"/><path data-name="Контур 27" d="M472.522 418.806H388V310.761a10.126 10.126 0 0 1 10.126-10.125H462.4a10.125 10.125 0 0 1 10.126 10.125Z" fill="#fff"/><path data-name="Контур 28" d="M472.522 415.232a1.039 1.039 0 0 1-1.039-1.039V311.122a9.458 9.458 0 0 0-9.448-9.447h-63.543a9.458 9.458 0 0 0-9.448 9.447v103.071a1.039 1.039 0 0 1-2.078 0V311.122a11.538 11.538 0 0 1 11.526-11.522h63.543a11.538 11.538 0 0 1 11.526 11.524v103.069a1.039 1.039 0 0 1-1.039 1.039" fill="#6a79a8"/><path data-name="Контур 29" d="M467.84 415.232a1.039 1.039 0 0 1-1.039-1.039v-94.681h-73.076v94.681a1.039 1.039 0 0 1-2.078 0v-95.72a1.039 1.039 0 0 1 1.039-1.039h75.154a1.039 1.039 0 0 1 1.039 1.039v95.72a1.039 1.039 0 0 1-1.039 1.039" fill="#6a79a8"/><path data-name="Контур 30" d="M437.412 311.938h-14.345a2.594 2.594 0 1 1 0-5.188h14.345a2.594 2.594 0 1 1 0 5.188m-14.345-3.111a.517.517 0 1 0 0 1.033h14.345a.517.517 0 1 0 0-1.033Z" fill="#6a79a8"/><path data-name="Контур 31" d="M438.968 398.121h-19.383a1.039 1.039 0 1 1 0-2.077h19.383a1.039 1.039 0 1 1 0 2.077" fill="#6a79a8"/><path data-name="Контур 32" d="M442.768 390.3h-26.984a1.039 1.039 0 1 1 0-2.077h26.984a1.039 1.039 0 1 1 0 2.077" fill="#6a79a8"/><path data-name="Контур 33" d="M449.937 351.865H410.59a1.039 1.039 0 1 1 0-2.077h39.347a1.039 1.039 0 1 1 0 2.077" fill="#6a79a8"/><path data-name="Контур 34" d="M427.147 359.136H410.59a1.039 1.039 0 1 1 0-2.077h16.557a1.039 1.039 0 1 1 0 2.077" fill="#6a79a8"/><path data-name="Контур 35" d="M449.937 359.136h-16.3a1.039 1.039 0 1 1 0-2.077h16.3a1.039 1.039 0 1 1 0 2.077" fill="#6a79a8"/><path data-name="Контур 36" d="M443.7 381.348h-34.03a1.039 1.039 0 0 1-1.039-1.039V367.48a1.039 1.039 0 0 1 1.039-1.039h40.263a1.039 1.039 0 0 1 1.039 1.039v7.963a1.039 1.039 0 0 1-2.078 0v-6.924h-38.181v10.751H443.7a1.039 1.039 0 1 1 0 2.077" fill="#6a79a8"/><path data-name="Прямоугольник 4" fill="#ff9c81" d="M412.272 333.723h40.263v12.829h-40.263z"/><path data-name="Контур 37" d="M449.937 344.994h-32.1a1.039 1.039 0 1 1 0-2.077H448.9v-10.752h-38.187v7.972a1.039 1.039 0 0 1-2.078 0v-9.011a1.039 1.039 0 0 1 1.039-1.039h40.263a1.039 1.039 0 0 1 1.039 1.039v12.829a1.039 1.039 0 0 1-1.039 1.039" fill="#6a79a8"/><path data-name="Контур 38" d="M170.476 418.937H62.722V259.252a13.721 13.721 0 0 1 13.722-13.72h80.309a13.721 13.721 0 0 1 13.722 13.72Z" fill="#fff"/><path data-name="Контур 39" d="M170.476 415.232a1.039 1.039 0 0 1-1.039-1.039V258.381a12.345 12.345 0 0 0-12.332-12.33H76.093a12.345 12.345 0 0 0-12.332 12.33v155.812a1.039 1.039 0 0 1-2.078 0V258.381a14.425 14.425 0 0 1 14.41-14.408H157.1a14.425 14.425 0 0 1 14.41 14.408v155.812a1.039 1.039 0 0 1-1.039 1.039" fill="#6a79a8"/><path data-name="Контур 40" d="M164.506 415.662a1.039 1.039 0 0 1-1.039-1.039V268.792H69.73v145.4a1.039 1.039 0 0 1-2.078 0V267.753a1.039 1.039 0 0 1 1.039-1.039h95.815a1.039 1.039 0 0 1 1.039 1.039v146.87a1.039 1.039 0 0 1-1.039 1.039" fill="#6a79a8"/><path data-name="Контур 41" d="M125.9 259.136h-18.669a2.833 2.833 0 0 1-2.83-2.829v-.384a2.833 2.833 0 0 1 2.83-2.83H125.9a2.833 2.833 0 0 1 2.83 2.83v.384a2.833 2.833 0 0 1-2.83 2.829m-18.673-3.966a.753.753 0 0 0-.753.753v.384a.753.753 0 0 0 .753.752H125.9a.753.753 0 0 0 .753-.752v-.384a.753.753 0 0 0-.753-.753Z" fill="#6a79a8"/><path data-name="Контур 42" d="M152.467 259.136h-1.137a2.833 2.833 0 0 1-2.83-2.829v-.384a2.833 2.833 0 0 1 2.83-2.83h1.137a2.833 2.833 0 0 1 2.83 2.83v.384a2.833 2.833 0 0 1-2.83 2.829m-1.137-3.966a.753.753 0 0 0-.753.753v.384a.753.753 0 0 0 .753.752h1.137a.753.753 0 0 0 .752-.752v-.384a.753.753 0 0 0-.752-.753Z" fill="#6a79a8"/><path data-name="Контур 43" d="M99.507 304.207a9.435 9.435 0 1 1 2.9-18.415 1.039 1.039 0 1 1-.638 1.977 7.358 7.358 0 1 0 3.943 3.048 1.039 1.039 0 0 1 1.751-1.119 9.436 9.436 0 0 1-7.957 14.509" fill="#6a79a8"/><path data-name="Контур 44" d="M134.746 295.811h-17.96a1.039 1.039 0 1 1 0-2.077h17.96a1.039 1.039 0 1 1 0 2.077" fill="#6a79a8"/><path data-name="Контур 45" d="M99.507 366.528a9.43 9.43 0 1 1 8.3-4.937 1.039 1.039 0 1 1-1.826-.992 7.349 7.349 0 1 0-4.348 3.541 1.039 1.039 0 1 1 .6 1.989 9.442 9.442 0 0 1-2.722.4" fill="#6a79a8"/><path data-name="Контур 46" d="M134.746 358.132h-17.96a1.039 1.039 0 1 1 0-2.077h17.96a1.039 1.039 0 1 1 0 2.077" fill="#6a79a8"/><path data-name="Контур 47" d="M110.5 328.529a8.4 8.4 0 0 1-8.4 8.4h-.032a8.4 8.4 0 1 1 0-16.792h.032a8.4 8.4 0 0 1 8.4 8.4" fill="#ff9c81"/><path data-name="Контур 48" d="M99.507 335.367a9.435 9.435 0 1 1 9.436-9.435 9.453 9.453 0 0 1-9.436 9.435m0-16.792a7.358 7.358 0 1 0 7.358 7.357 7.373 7.373 0 0 0-7.358-7.357" fill="#6a79a8"/><path data-name="Контур 49" d="M134.746 324.894h-17.96a1.039 1.039 0 1 1 0-2.077h17.96a1.039 1.039 0 1 1 0 2.077" fill="#6a79a8"/><path data-name="Контур 50" d="M134.746 329.568h-17.96a1.039 1.039 0 1 1 0-2.077h17.96a1.039 1.039 0 1 1 0 2.077" fill="#6a79a8"/><path data-name="Контур 51" d="M134.746 382.93h-16.882a1.039 1.039 0 1 1 0-2.077h16.882a1.039 1.039 0 1 1 0 2.077" fill="#6a79a8"/><path data-name="Контур 52" d="M110.5 382.93H95.4a1.039 1.039 0 1 1 0-2.077h15.1a1.039 1.039 0 1 1 0 2.077" fill="#6a79a8"/><path data-name="Контур 53" d="M126.3 387.6H95.4a1.039 1.039 0 1 1 0-2.077h30.9a1.039 1.039 0 1 1 0 2.077" fill="#6a79a8"/><path data-name="Контур 54" d="M82.8 418.937H4.224V310.618a9.876 9.876 0 0 1 9.878-9.875h58.824a9.876 9.876 0 0 1 9.877 9.875Z" fill="#fff"/><path data-name="Контур 55" d="M82.8 415.154a1.039 1.039 0 0 1-1.039-1.039V310.492a8.721 8.721 0 0 0-8.712-8.71H13.975a8.721 8.721 0 0 0-8.711 8.71v103.624a1.039 1.039 0 0 1-2.078 0V310.492A10.8 10.8 0 0 1 13.975 299.7h59.077a10.8 10.8 0 0 1 10.79 10.788v103.628a1.039 1.039 0 0 1-1.039 1.039" fill="#6a79a8"/><path data-name="Контур 56" d="M78.449 415.232a1.039 1.039 0 0 1-1.039-1.039v-95.828H9.616v95.751a1.039 1.039 0 0 1-2.078 0v-96.79a1.039 1.039 0 0 1 1.039-1.039h69.872a1.039 1.039 0 0 1 1.039 1.039v96.867a1.039 1.039 0 0 1-1.039 1.039" fill="#6a79a8"/><path data-name="Контур 57" d="M50.294 311.324H36.688a2.353 2.353 0 0 1-2.351-2.35v-.274a2.353 2.353 0 0 1 2.351-2.35h13.606a2.353 2.353 0 0 1 2.351 2.35v.269a2.353 2.353 0 0 1-2.351 2.35m-13.606-2.892a.273.273 0 0 0-.273.273v.269a.273.273 0 0 0 .273.273h13.606a.273.273 0 0 0 .273-.273v-.269a.273.273 0 0 0-.273-.273Z" fill="#6a79a8"/><path data-name="Контур 58" d="M67.634 311.419h-.591a2.594 2.594 0 1 1 0-5.188h.591a2.594 2.594 0 0 1 0 5.188m-.591-3.111a.517.517 0 1 0 0 1.033h.591a.517.517 0 0 0 0-1.033Z" fill="#6a79a8"/><path data-name="Контур 59" d="M66.124 355.414H49.3a1.039 1.039 0 0 1-1.039-1.039v-4.553a1.039 1.039 0 0 1 2.078 0v3.514h14.746v-14.714H50.337v3.67a1.039 1.039 0 0 1-2.078 0v-4.708a1.039 1.039 0 0 1 1.039-1.039h16.826a1.039 1.039 0 0 1 1.039 1.039v16.792a1.039 1.039 0 0 1-1.039 1.039" fill="#6a79a8"/><path data-name="Контур 60" d="M66.124 381.405H54.931a1.039 1.039 0 1 1 0-2.077h10.154v-14.715H50.337v9.618a1.039 1.039 0 0 1-2.078 0v-10.657a1.039 1.039 0 0 1 1.039-1.039h16.826a1.039 1.039 0 0 1 1.039 1.039v16.792a1.039 1.039 0 0 1-1.039 1.039" fill="#6a79a8"/><path data-name="Прямоугольник 5" fill="#fff0a9" d="M23.499 340.18h16.827v42.784H23.499z"/><path data-name="Контур 61" d="M37.729 381.405H20.9a1.039 1.039 0 0 1-1.039-1.039v-8.4a1.039 1.039 0 0 1 2.078 0v7.357H36.69v-40.701H21.941v20.353a1.039 1.039 0 0 1-2.078 0v-21.392a1.039 1.039 0 0 1 1.039-1.039h16.827a1.039 1.039 0 0 1 1.039 1.039v42.784a1.039 1.039 0 0 1-1.039 1.039" fill="#6a79a8"/><path data-name="Контур 62" d="M54.931 395.784H32.1a1.039 1.039 0 1 1 0-2.077h22.831a1.039 1.039 0 1 1 0 2.077" fill="#6a79a8"/><path data-name="Контур 63" d="M54.931 400.458H44.624a1.039 1.039 0 1 1 0-2.077h10.307a1.039 1.039 0 1 1 0 2.077" fill="#6a79a8"/><path data-name="Контур 64" d="M37.729 400.458H32.1a1.039 1.039 0 1 1 0-2.077h5.633a1.039 1.039 0 1 1 0 2.077" fill="#6a79a8"/><path data-name="Прямоугольник 6" fill="#f2f3f4" d="M142.547 243.704h92.459V418.38h-92.459z"/><path data-name="Прямоугольник 7" fill="#f2f3f4" d="M234.996 212.197h92.459v206.182h-92.459z"/><path data-name="Контур 65" d="M319.455 418.379H150.632V171.45a21.23 21.23 0 0 1 21.231-21.228h126.361a21.23 21.23 0 0 1 21.231 21.228Z" fill="#fff"/><path data-name="Контур 66" d="M319.455 416.084a1.039 1.039 0 0 1-1.039-1.039V171.167a19.931 19.931 0 0 0-19.91-19.907H171.581a19.931 19.931 0 0 0-19.91 19.907v243.879a1.039 1.039 0 0 1-2.078 0V171.167a22.011 22.011 0 0 1 21.988-21.984h126.925a22.01 22.01 0 0 1 21.988 21.984v243.879a1.038 1.038 0 0 1-1.039 1.039" fill="#6a79a8"/><path data-name="Контур 67" d="M159.985 416.085a1.039 1.039 0 0 1-1.039-1.039V185.852a1.039 1.039 0 0 1 1.039-1.039H310.1a1.039 1.039 0 0 1 1.039 1.039v228.476a1.039 1.039 0 0 1-2.078 0V186.89H161.024v228.156a1.038 1.038 0 0 1-1.039 1.039" fill="#6a79a8"/><path data-name="Контур 68" d="M249.324 171.762h-28.656a4.145 4.145 0 1 1 0-8.291h28.655a4.145 4.145 0 1 1 0 8.291m-28.655-6.213a2.068 2.068 0 1 0 0 4.136h28.655a2.068 2.068 0 0 0 0-4.136Z" fill="#6a79a8"/><path data-name="Контур 69" d="M299.895 291.465a61.251 61.251 0 1 1-61.251-61.24 61.245 61.245 0 0 1 61.251 61.24" fill="#def3f9"/><path data-name="Контур 70" d="M193.636 329.919a21.376 21.376 0 0 1 3.746-2.953l.028-.014c.195-.113.39-.222.586-.319l.012.016c5.776-2.918 12.823-5.178 19.266-5.261 2.252-.029 4.5-.075 6.753-.155l1.762-.062c1.367-.048 2.734-.1 4.1-.135a72.857 72.857 0 0 1 11.225.2l5.793.737a46.6 46.6 0 0 0 5.677.723c7.436 0 17.156 3.55 23.014 9.607 1.016 1.051-18.21 15.215-39.852 16.318-10.285.524-27.115-4.222-27.562-5.819 0 0-.877-2.078-1.194-2.6l-2.494.546Z" fill="#fff"/><path data-name="Контур 71" d="M208.084 343.434a1.039 1.039 0 0 1-.931-.576l-.729-1.467-1.7.373a1.043 1.043 0 0 1-.956-.279l-10.868-10.83a1.039 1.039 0 0 1 0-1.467 22.262 22.262 0 0 1 3.96-3.118l.056-.031c.206-.119.413-.233.621-.337a1.022 1.022 0 0 1 .183-.07c3.937-1.971 11.553-5.18 19.544-5.284a297.12 297.12 0 0 0 6.729-.155l1.762-.062c1.369-.048 2.738-.1 4.108-.134l.982-.029a67.127 67.127 0 0 1 10.4.238l5.793.737a41.7 41.7 0 0 1 1.9.3 22.768 22.768 0 0 0 3.642.419c8.338 0 18.109 4.081 23.761 9.924a1.039 1.039 0 0 1-1.493 1.444c-5.291-5.47-14.448-9.291-22.268-9.291a24.258 24.258 0 0 1-3.988-.448 46.333 46.333 0 0 0-1.82-.283l-5.793-.737a65.443 65.443 0 0 0-10.081-.223l-.984.029c-1.365.038-2.729.086-4.093.135l-1.762.062c-2.027.072-4.243.123-6.776.156-5.62.073-12.477 1.95-18.811 5.15a1.049 1.049 0 0 1-.181.071c-.122.064-.243.132-.363.2-.022.014-.045.025-.068.037a18.057 18.057 0 0 0-2.735 2.055l9.7 9.672 1.94-.425a1.038 1.038 0 0 1 1.153.553l1.09 2.192a1.039 1.039 0 0 1-.929 1.5" fill="#6a79a8"/><path data-name="Контур 72" d="m232.4 348.636 1.5-6.323 3.763.238.509 5.986Z" fill="#fff0a9"/><path data-name="Контур 73" d="M230.565 349.274a1.01 1.01 0 0 1-.253-.031 1.038 1.038 0 0 1-.756-1.259l1.852-7.4a1.036 1.036 0 0 1 1.074-.785l3.763.238a1.039 1.039 0 0 1 .969.944l.642 7.133a1.039 1.039 0 0 1-2.07.185l-.562-6.245-2.01-.127-1.642 6.562a1.039 1.039 0 0 1-1.007.787" fill="#6a79a8"/><path data-name="Контур 74" d="M236.065 340.22a3.87 3.87 0 0 1-3.656-4.073l.065-1.2a3.871 3.871 0 0 1 7.73.417l-.065 1.2a3.871 3.871 0 0 1-4.074 3.656" fill="#fff0a9"/><path data-name="Контур 75" d="M234.8 339.785c-.09 0-.181 0-.272-.008a4.915 4.915 0 0 1-4.638-5.166l.065-1.2a4.91 4.91 0 0 1 9.805.53l-.065 1.2a4.91 4.91 0 0 1-4.9 4.645m.057-8.942a2.835 2.835 0 0 0-2.826 2.679l-.065 1.2a2.832 2.832 0 0 0 5.656.305l.065-1.2a2.832 2.832 0 0 0-2.675-2.98h-.154" fill="#6a79a8"/><path data-name="Контур 76" d="m206.816 321.189 20.785 7.6a3.627 3.627 0 0 0 4.652-2.159l1.242-3.4a3.625 3.625 0 0 0-2.16-4.651l-20.784-7.6a3.628 3.628 0 0 0-4.653 2.161l-1.242 3.395a3.626 3.626 0 0 0 2.16 4.651" fill="#fff"/><path data-name="Контур 77" d="M228.842 330.049a4.645 4.645 0 0 1-1.6-.284l-20.785-7.6a4.664 4.664 0 0 1-2.779-5.983l1.242-3.4a4.671 4.671 0 0 1 5.984-2.778l20.785 7.6a4.664 4.664 0 0 1 2.779 5.983l-1.242 3.4a4.675 4.675 0 0 1-4.387 3.063m-19.532-18.25a2.592 2.592 0 0 0-2.433 1.7l-1.242 3.4a2.588 2.588 0 0 0 1.542 3.319l20.785 7.6a2.593 2.593 0 0 0 3.32-1.542l1.242-3.395a2.588 2.588 0 0 0-1.542-3.32l-20.784-7.6a2.59 2.59 0 0 0-.887-.157" fill="#6a79a8"/><path data-name="Контур 78" d="m265.97 320.971-23.555 8.614a3.627 3.627 0 0 1-4.653-2.16l-1.242-3.4a3.626 3.626 0 0 1 2.16-4.651l23.555-8.614a3.627 3.627 0 0 1 4.652 2.16l1.242 3.4a3.626 3.626 0 0 1-2.16 4.651" fill="#fff"/><path data-name="Контур 79" d="M241.166 330.847a4.673 4.673 0 0 1-4.379-3.066l-1.242-3.394a4.671 4.671 0 0 1 2.779-5.984l23.555-8.614a4.666 4.666 0 0 1 5.984 2.778l1.242 3.4a4.67 4.67 0 0 1-2.779 5.983l-23.555 8.614a4.663 4.663 0 0 1-1.606.287m22.317-19.266a2.6 2.6 0 0 0-.891.159l-23.555 8.614a2.591 2.591 0 0 0-1.542 3.32l1.242 3.394a2.588 2.588 0 0 0 3.32 1.542L265.614 320a2.59 2.59 0 0 0 1.541-3.319l-1.242-3.4a2.6 2.6 0 0 0-2.429-1.7" fill="#6a79a8"/><path data-name="Контур 80" d="m229.233 314.074 16.551-.454a17.448 17.448 0 0 0 16.964-17.92l-.531-19.336a17.448 17.448 0 0 0-17.922-16.96l-16.551.454a17.447 17.447 0 0 0-16.963 17.919l.531 19.336a17.448 17.448 0 0 0 17.922 16.961" fill="#fff"/><path data-name="Контур 81" d="M228.741 315.12a18.487 18.487 0 0 1-18.468-17.977l-.531-19.336a18.485 18.485 0 0 1 17.973-18.986l16.551-.455a18.487 18.487 0 0 1 18.989 17.97l.532 19.336a18.507 18.507 0 0 1-17.973 18.986l-16.551.455a18.15 18.15 0 0 1-.521.007m.464-2.084.029 1.038-.029-1.038 16.551-.455a16.409 16.409 0 0 0 15.954-16.852l-.532-19.337a16.429 16.429 0 0 0-16.4-15.956q-.228 0-.457.006l-16.551.455a16.41 16.41 0 0 0-15.954 16.853l.531 19.336a16.41 16.41 0 0 0 16.852 15.95" fill="#6a79a8"/><path data-name="Контур 82" d="M236.435 305.5h-.168a10.087 10.087 0 0 1-9.923-10.248 1.052 1.052 0 0 1 1.055-1.022 1.039 1.039 0 0 1 1.022 1.055 8.011 8.011 0 0 0 16.019.26 1.038 1.038 0 0 1 1.038-1.022h.017a1.039 1.039 0 0 1 1.022 1.056 10.087 10.087 0 0 1-10.082 9.923" fill="#6a79a8"/><path data-name="Контур 83" d="M211.565 255.378a51.173 51.173 0 0 0-12.164 2.487l-3.918 1.3s5.859-10.236 10.416-13.337c7.745-5.271 17.621-5.472 26.636-4.514 6.954.74 13.792 2.288 20.687 3.446 4.882.82 11.207 1.941 12.545 7.6.976 4.127.2 8.37-.337 12.505-.572 4.41-1.568 8.8-2.412 13.163-1.289-8.1-7.08-14.805-14.63-16.239-6.845-1.3-13.635 1.949-17.95 7.827l-8.136-4.328c-4.715-.016-19.031 3.857-19.031 3.857l14.648-13.745a29.277 29.277 0 0 0-6.354-.024" fill="#fff"/><path data-name="Контур 84" d="M214.4 257.713a51.173 51.173 0 0 0-12.164 2.487l-3.918 1.3s5.858-10.236 10.416-13.337c7.745-5.271 17.621-5.473 26.636-4.514 6.954.74 13.792 2.288 20.687 3.446 4.882.82 11.207 1.941 12.545 7.6.976 4.127.2 8.37-.337 12.505-.573 4.41-1.569 8.8-2.412 13.163-1.288-8.1-7.08-14.805-14.63-16.239-6.845-1.3-13.635 1.949-17.949 7.827l-8.137-4.328c-4.715-.016-19.031 3.857-19.031 3.857l14.647-13.745a29.276 29.276 0 0 0-6.354-.024" fill="#fff0a9"/><path data-name="Контур 85" d="M262.684 278.92a1.04 1.04 0 0 1-1.025-.876c-1.263-7.94-6.548-13.919-13.464-15.233-6.207-1.179-12.691 1.664-16.918 7.421A1.039 1.039 0 0 1 229.6 269c4.705-6.408 11.978-9.562 18.981-8.233 7.787 1.479 13.725 8.131 15.128 16.947a1.039 1.039 0 0 1-1.027 1.2" fill="#6a79a8"/><path data-name="Контур 86" d="M263.308 279.074a1.07 1.07 0 0 1-.2-.019 1.039 1.039 0 0 1-.823-1.217 216.645 216.645 0 0 0 2.114-13.1q.094-.714.192-1.432c.484-3.557.984-7.234.165-10.7-1.1-4.668-5.955-5.848-11.706-6.814-2.252-.379-4.53-.8-6.734-1.216-4.542-.849-9.24-1.726-13.891-2.221-7.264-.772-17.856-1.163-25.942 4.34-2.984 2.03-6.654 7.437-8.645 10.6l1.235-.411a52.3 52.3 0 0 1 12.41-2.536c5.88-.458 11.092-.372 15.333 5.359a21.345 21.345 0 0 1 2.738 5.426 27.059 27.059 0 0 0 1.784 3.973 1.039 1.039 0 0 1-1.8 1.037 28.708 28.708 0 0 1-1.923-4.266 19.44 19.44 0 0 0-2.468-4.934c-3.615-4.885-8.063-4.948-13.5-4.523a50.206 50.206 0 0 0-11.917 2.437l-3.918 1.3a1.039 1.039 0 0 1-1.23-1.5c.245-.427 6.032-10.481 10.733-13.68 8.651-5.887 19.741-5.5 27.331-4.688 4.733.5 9.471 1.389 14.053 2.245 2.195.41 4.463.835 6.7 1.21 4.727.794 11.872 1.994 13.384 8.385.908 3.842.381 7.714-.128 11.459-.064.474-.129.947-.19 1.419-.572 4.41-1.29 8.861-2.134 13.231a1.039 1.039 0 0 1-1.019.842" fill="#6a79a8"/><path data-name="Контур 87" d="M203.271 270.186a1.038 1.038 0 0 1-.711-1.8l12.613-11.836a1.039 1.039 0 1 1 1.422 1.515l-9.65 9.055c4.625-1.155 12.055-2.872 15.331-2.872h.031a1.039 1.039 0 0 1 0 2.077h-.031c-4.552 0-18.588 3.782-18.73 3.821a1.057 1.057 0 0 1-.271.036" fill="#6a79a8"/><path data-name="Контур 88" d="M234.561 349.662a62.279 62.279 0 1 1 62.29-62.279 62.355 62.355 0 0 1-62.29 62.279m0-122.481a60.2 60.2 0 1 0 60.212 60.2 60.275 60.275 0 0 0-60.212-60.2" fill="#6a79a8"/><path data-name="Контур 89" d="M250.627 397.6a5.713 5.713 0 1 1 5.714-5.713 5.72 5.72 0 0 1-5.714 5.713m0-9.348a3.635 3.635 0 1 0 3.636 3.635 3.64 3.64 0 0 0-3.636-3.635" fill="#6a79a8"/><path data-name="Контур 90" d="M240.238 391.889a5.194 5.194 0 1 1-5.194-5.193 5.194 5.194 0 0 1 5.194 5.193" fill="#6a79a8"/><path data-name="Контур 91" d="M219.461 397.6a5.713 5.713 0 1 1 5.714-5.713 5.72 5.72 0 0 1-5.714 5.713m0-9.348a3.635 3.635 0 1 0 3.636 3.635 3.64 3.64 0 0 0-3.636-3.635" fill="#6a79a8"/><path data-name="Контур 92" d="M374.378 419.933h-197.4a1.039 1.039 0 1 1 0-2.077h197.4a1.039 1.039 0 1 1 0 2.077" fill="#6a79a8"/><path data-name="Контур 93" d="M469 419.933h-11.177a1.039 1.039 0 1 1 0-2.077H469a1.039 1.039 0 1 1 0 2.077" fill="#6a79a8"/><path data-name="Контур 94" d="M445.91 419.933h-51.178a1.039 1.039 0 1 1 0-2.077h51.178a1.039 1.039 0 1 1 0 2.077" fill="#6a79a8"/><path data-name="Контур 95" d="M40.919 419.933H10.911a1.039 1.039 0 1 1 0-2.077h30.008a1.039 1.039 0 1 1 0 2.077" fill="#6a79a8"/><path data-name="Контур 96" d="M142.624 419.933H62.16a1.039 1.039 0 1 1 0-2.077h80.464a1.039 1.039 0 1 1 0 2.077" fill="#6a79a8"/><path data-name="Контур 97" d="m125.662 90.019-.047-.2-10.285-44.632a.422.422 0 0 1 .045-.306.467.467 0 0 1 .077-.213.41.41 0 0 1 .531-.175l54.608 26.613a.4.4 0 0 1-.173.763l-21.185.012-.245 16.473c-.006.353-.394.411-.541.433a.62.62 0 0 1-.228 0 .37.37 0 0 1-.375-.158l-6.752-9.973-14.84 11.387-.187.13Zm23.183-18.4-33.393-26.95L144.835 75.6l.25.448 3.631 11.933a.025.025 0 0 0 .048-.007l.227-16.03a.413.413 0 0 0-.146-.323m-23.183 18.4-.047-.2-10.285-44.634a.422.422 0 0 1 .045-.306.467.467 0 0 1 .077-.213.41.41 0 0 1 .531-.175l54.608 26.613a.4.4 0 0 1-.173.763l-21.185.012-.245 16.473c-.006.353-.394.411-.541.433a.62.62 0 0 1-.228 0 .37.37 0 0 1-.375-.158l-6.752-9.973-14.84 11.387-.187.13Z" fill="#fff"/><path data-name="Контур 98" d="M126.065 91.212a1.033 1.033 0 0 1-.371-.069l-.4-.154a1.038 1.038 0 0 1-.638-.727l-.048-.2-10.29-44.641a1.447 1.447 0 0 1 .059-.854 1.515 1.515 0 0 1 .188-.44l.025-.039a1.439 1.439 0 0 1 1.853-.526l54.6 26.61a1.424 1.424 0 0 1 .813 1.291 1.462 1.462 0 0 1-.036.323 1.432 1.432 0 0 1-1.4 1.122l-20.162.011-.23 15.45a1.489 1.489 0 0 1-1.427 1.445 1.758 1.758 0 0 1-.409.014 1.431 1.431 0 0 1-1.207-.619l-6.134-9.061-14.193 10.878a1.037 1.037 0 0 1-.593.186M117 47.805l9.4 40.814 14.06-10.791a1.039 1.039 0 0 1 1.493.241l4.837 7.145-2.711-8.842-.087-.155Zm10.03 7.541 18.559 19.536a1.056 1.056 0 0 1 .154.21l.249.447a1.055 1.055 0 0 1 .087.2l1.739 5.714.131-9.227Zm43.105 16.692.011.005Zm-48.249-23.512L149.5 70.81l.016.012.022.02 18.122-.01Z" fill="#6a79a8"/><path data-name="Контур 99" d="M193.619 143.443a1.04 1.04 0 0 1-.994-.737 49.565 49.565 0 0 0-3.024-6.98 1.039 1.039 0 0 1 1.853-.938 50.428 50.428 0 0 1 3.159 7.316 1.04 1.04 0 0 1-.995 1.339m-6.893-13.943a1.04 1.04 0 0 1-.888-.5 124.55 124.55 0 0 0-4.232-6.463 1.039 1.039 0 0 1 1.7-1.19c1.54 2.2 2.987 4.414 4.3 6.571a1.039 1.039 0 0 1-.886 1.58m-8.9-12.778a1.039 1.039 0 0 1-.82-.4c-1.552-1.988-3.2-4-4.908-5.986a1.039 1.039 0 0 1 1.576-1.354 167.14 167.14 0 0 1 4.97 6.061 1.039 1.039 0 0 1-.818 1.678M167.684 104.9a1.035 1.035 0 0 1-.759-.329 207.152 207.152 0 0 0-5.4-5.557 1.039 1.039 0 0 1 1.463-1.476 205.412 205.412 0 0 1 5.457 5.614 1.039 1.039 0 0 1-.758 1.748" fill="#ff9c81"/><path data-name="Контур 100" d="M162.207 99.311a1.036 1.036 0 0 1-.754-.324l-2.858-3.012a1.039 1.039 0 1 1 1.508-1.43l2.858 3.013a1.039 1.039 0 0 1-.754 1.753" fill="#ff9c81"/><path data-name="Контур 101" d="m164.753 95.839-4.981-.133-.13 4.98-2.058-2.169.132-4.979 4.979.131Z" fill="#ff9c81"/><path data-name="Контур 102" d="m401.066 134.264-.146-.175-11.3-14.909-9.148 7.833a.371.371 0 0 1-.4.053.625.625 0 0 1-.221-.057c-.136-.06-.5-.219-.408-.56l4.12-15.952-20.428-5.613a.4.4 0 0 1 .035-.781l59.7-11.229a.41.41 0 0 1 .466.308.465.465 0 0 1 .018.225.429.429 0 0 1-.038.308l-21.722 40.327-.1.178Zm-17.289-23.644-4.02 15.519a.024.024 0 0 0 .044.02l6.659-10.549.359-.366 36.517-22.061L384 110.346a.415.415 0 0 0-.227.273m17.289 23.645-.146-.175-11.3-14.909-9.148 7.833a.371.371 0 0 1-.4.053.625.625 0 0 1-.221-.057c-.136-.06-.5-.219-.408-.56l4.12-15.952-20.428-5.613a.4.4 0 0 1 .035-.781l59.7-11.229a.41.41 0 0 1 .466.308.465.465 0 0 1 .018.225.429.429 0 0 1-.038.308l-21.722 40.327-.1.178Z" fill="#fff"/><path data-name="Контур 103" d="M401.066 135.3a1.039 1.039 0 0 1-.8-.374l-.146-.175-10.664-14.068-8.311 7.117a1.415 1.415 0 0 1-1.329.278 1.728 1.728 0 0 1-.392-.122 1.509 1.509 0 0 1-1.035-1.415 1.479 1.479 0 0 1 .042-.353l3.865-14.963-19.442-5.341a1.431 1.431 0 0 1-1.054-1.384v-.067a1.432 1.432 0 0 1 1.185-1.352l59.693-11.227a1.436 1.436 0 0 1 1.641.992l.018.057a1.53 1.53 0 0 1 .062.429v.037c0 .049.007.1.007.146a1.451 1.451 0 0 1-.179.7L402.4 134.724a1.037 1.037 0 0 1-.807.532l-.429.043c-.034 0-.068.005-.1.005m-11.444-17.163a.99.99 0 0 1 .111.006 1.039 1.039 0 0 1 .717.405l10.7 14.122L421.014 95.8l-33.546 20.266-.19.193-4.889 7.741 6.555-5.613a1.04 1.04 0 0 1 .676-.25m-4.913-6.968-2.314 8.934 3.188-5.051a1.055 1.055 0 0 1 .139-.176l.357-.362a1.042 1.042 0 0 1 .2-.162l23.065-13.934ZM366.069 104.611l17.474 4.8.027-.012 32.541-14.2Zm-2.7.508h-.011.011" fill="#6a79a8"/><path data-name="Контур 104" d="M324.6 162.242a1.038 1.038 0 0 1-.9-1.548c.05-.087 1.259-2.18 5.4-6.01a1.039 1.039 0 0 1 1.41 1.526 29.163 29.163 0 0 0-5.008 5.513 1.041 1.041 0 0 1-.9.519m11.168-10.76a1.039 1.039 0 0 1-.636-1.86c1.937-1.5 4.071-3.052 6.342-4.615a1.039 1.039 0 1 1 1.178 1.711 140.142 140.142 0 0 0-6.249 4.546 1.034 1.034 0 0 1-.635.218m12.8-8.858a1.039 1.039 0 0 1-.555-1.917c2.115-1.333 4.364-2.7 6.686-4.059a1.039 1.039 0 1 1 1.051 1.792c-2.3 1.35-4.533 2.7-6.628 4.024a1.036 1.036 0 0 1-.553.16" fill="#ff9c81"/><path data-name="Контур 105" d="M359.283 136.283a1.039 1.039 0 0 1-.541-1.926l3.154-1.918a1.039 1.039 0 1 1 1.079 1.775l-3.154 1.917a1.032 1.032 0 0 1-.539.152" fill="#ff9c81"/><path data-name="Контур 106" d="m360.73 138.486 1.181-4.84-4.842-1.178 2.556-1.554 4.84 1.179-1.179 4.839Z" fill="#ff9c81"/><path data-name="Контур 107" d="M310.536 71.059 294.91 40.3l-33.632 7.536-14.63 31.173 49.289 23.139Z" fill="#fff"/><path data-name="Контур 108" d="M295.936 103.187a1.032 1.032 0 0 1-.441-.1l-49.289-23.138a1.039 1.039 0 0 1-.5-1.382l14.6-31.081a.789.789 0 0 1 .037-.091 1.042 1.042 0 0 1 .711-.578l33.632-7.536a1.04 1.04 0 0 1 1.154.543l15.42 30.367a1.04 1.04 0 0 1 .257 1.224l-14.64 31.174a1.04 1.04 0 0 1-.941.6M248.029 78.51l47.409 22.256 13.942-29.689-15.03-29.592-32.336 7.245Z" fill="#6a79a8"/><path data-name="Контур 109" d="M295.937 103.186a1.04 1.04 0 0 1-.441-.1l-49.29-23.137a1.039 1.039 0 0 1-.5-1.382l14.64-31.174a1.039 1.039 0 0 1 1.382-.5l49.288 23.138a1.039 1.039 0 0 1 .5 1.382l-14.64 31.174a1.036 1.036 0 0 1-.94.6M248.029 78.51l47.408 22.256 13.756-29.294-47.407-22.255Z" fill="#6a79a8"/><path data-name="Контур 110" d="M288.19 77.257a1.036 1.036 0 0 1-.444-.1l-16.38-7.742a1.035 1.035 0 0 1-.482-.467L260.353 48.3a1.038 1.038 0 0 1 .7-1.486l33.632-7.536a1.04 1.04 0 0 1 1.154.543l15.626 30.764a1.039 1.039 0 0 1-.692 1.482l-22.349 5.163a1.052 1.052 0 0 1-.234.026m-15.616-9.568 15.734 7.436 20.7-4.779-14.658-28.86-31.538 7.067Z" fill="#6a79a8"/><path data-name="Контур 111" d="M298.215 98.337a1.039 1.039 0 0 1-.936-.587l-10.108-20.915-15.437-7.246-22.559 5.579a1.039 1.039 0 1 1-.5-2.017l22.917-5.668a1.042 1.042 0 0 1 .691.068l16.1 7.56a1.036 1.036 0 0 1 .494.488l10.273 21.247a1.04 1.04 0 0 1-.935 1.491" fill="#6a79a8"/><path data-name="Контур 112" d="M241.22 145.184a1.024 1.024 0 0 1-1.038-1v-.057a29.394 29.394 0 0 1 1.578-7.882 1.039 1.039 0 0 1 1.987.607 27.694 27.694 0 0 0-1.487 7.274 1.053 1.053 0 0 1-1.026 1.054Zm4.213-14.9a1.04 1.04 0 0 1-.957-1.442c.955-2.27 2.064-4.668 3.3-7.129a1.039 1.039 0 0 1 1.857.931c-1.212 2.42-2.3 4.776-3.239 7a1.04 1.04 0 0 1-.958.637m6.935-13.935a1.039 1.039 0 0 1-.9-1.55 199.023 199.023 0 0 1 3.988-6.736 1.039 1.039 0 0 1 1.768 1.092 197.508 197.508 0 0 0-3.946 6.666 1.039 1.039 0 0 1-.906.528" fill="#ff9c81"/><path data-name="Контур 113" d="M259.35 104.952a1.039 1.039 0 0 1-.887-1.579l1.918-3.153a1.039 1.039 0 0 1 1.775 1.079l-1.918 3.153a1.038 1.038 0 0 1-.889.5" fill="#ff9c81"/><path data-name="Контур 114" d="m262.129 106.124-1.179-4.841-4.841 1.181 1.554-2.555 4.84-1.179 1.18 4.839Z" fill="#ff9c81"/><path data-name="Контур 115" d="m78.414 127.433-34.247 4.249-4.33 34.187L64.2 190.215l38.5-38.5Z" fill="#fff"/><path data-name="Контур 116" d="M64.2 191.254a1.038 1.038 0 0 1-.735-.3l-24.284-24.28a1.506 1.506 0 0 1-.072-.065 1.043 1.043 0 0 1-.3-.865l4.33-34.188a1.039 1.039 0 0 1 .9-.9l33.806-4.194a1.037 1.037 0 0 1 .5-.13 1.038 1.038 0 0 1 .734.3l24.357 24.352a1.038 1.038 0 0 1 0 1.469l-38.5 38.5a1.038 1.038 0 0 1-.734.3m-23.269-25.77L64.2 188.746l37.034-37.027-23.2-23.192-32.934 4.087Z" fill="#6a79a8"/><path data-name="Контур 117" d="M64.2 191.254a1.036 1.036 0 0 1-.734-.3L39.11 166.6a1.038 1.038 0 0 1 0-1.469l38.5-38.5a1.069 1.069 0 0 1 1.469 0l24.357 24.352a1.038 1.038 0 0 1 0 1.469l-38.5 38.5a1.036 1.036 0 0 1-.734.3m-22.889-25.389L64.2 188.746l37.034-37.027-22.887-22.884Z" fill="#6a79a8"/><path data-name="Контур 118" d="M39.837 166.908a1.038 1.038 0 0 1-1.031-1.169l4.33-34.188a1.039 1.039 0 0 1 .9-.9l34.25-4.251a1.039 1.039 0 0 1 1.159 1.155l-2.734 22.766a1.041 1.041 0 0 1-.3.613l-12.843 12.778a1.041 1.041 0 0 1-.6.294l-23 2.894a1.087 1.087 0 0 1-.13.008m5.262-34.294-4.06 32.058 21.317-2.682 12.339-12.272 2.532-21.09Z" fill="#6a79a8"/><path data-name="Контур 119" d="M60.413 187.465a.973.973 0 0 1-.109-.006 1.039 1.039 0 0 1-.926-1.141l2.449-23.477a1.04 1.04 0 0 1 .3-.626l12.58-12.577a1.038 1.038 0 0 1 .627-.3l23.473-2.438a1.039 1.039 0 0 1 .215 2.066l-23.108 2.4-12.058 12.058-2.411 23.111a1.04 1.04 0 0 1-1.032.931" fill="#6a79a8"/><path data-name="Контур 120" d="M143.759 191.671a1.035 1.035 0 0 1-.717-.288 31.058 31.058 0 0 0-6.29-4.05 1.039 1.039 0 1 1 .965-1.84 31.96 31.96 0 0 1 6.762 4.389 1.039 1.039 0 0 1-.719 1.789m-13.61-7.445a1.039 1.039 0 0 1-.385-.074c-2.262-.9-4.707-1.77-7.266-2.582a1.039 1.039 0 1 1 .628-1.98c2.607.827 5.1 1.712 7.408 2.633a1.039 1.039 0 0 1-.385 2m-14.825-4.744a1.054 1.054 0 0 1-.259-.033 169.5 169.5 0 0 0-7.542-1.745 1.039 1.039 0 1 1 .423-2.034 170.52 170.52 0 0 1 7.634 1.766 1.039 1.039 0 0 1-.257 2.045m-15.243-3.192a1.049 1.049 0 0 1-.174-.015q-.91-.153-1.843-.3a1.039 1.039 0 1 1 .327-2.051q.943.15 1.862.3a1.039 1.039 0 0 1-.171 2.063" fill="#ff9c81"/><path data-name="Контур 121" d="M100.365 176.366a1.06 1.06 0 0 1-.2-.02l-3.62-.725a1.039 1.039 0 0 1 .408-2.037l3.62.725a1.039 1.039 0 0 1-.2 2.057" fill="#ff9c81"/><path data-name="Контур 122" d="m101.493 171.962-4.148 2.761 2.764 4.145-2.933-.587-2.762-4.145 4.146-2.761Z" fill="#ff9c81"/></g></g></svg>