<svg xmlns="http://www.w3.org/2000/svg" width="70" height="68"><path data-name="Фигура 33" d="M88 60.927L51.43 4.038C49.76 1.438 47.47 0 44.98 0s-4.77 1.434-6.45 4.038L1.97 60.927C-.19 64.28-.6 67.511.81 70.027c1.43 2.561 4.51 3.972 8.67 3.972h71.01c4.15 0 7.23-1.412 8.66-3.976 1.41-2.518 1-5.749-1.15-9.096zm-4.23 6.244c-.35.629-1.3.989-2.59.989H8.67c-1.31 0-2.26-.357-2.6-.979-.34-.6-.15-1.532.52-2.565L43.9 6.64a1.4 1.4 0 011.02-.771 1.41 1.41 0 011.03.77l37.31 57.977a2.645 2.645 0 01.51 2.555zM41.59 27.056v19.582a3.393 3.393 0 006.78 0V27.056a3.393 3.393 0 00-6.78 0zm3.39 29.353a3.262 3.262 0 103.39 3.26 3.329 3.329 0 00-3.39-3.26z" fill="#fce6d7" fill-rule="evenodd"/></svg>