<svg width="48" height="48" viewBox="0 0 48 48" fill="none" xmlns="http://www.w3.org/2000/svg"><path fill-rule="evenodd" clip-rule="evenodd" d="M48 24v2.4l-.002.994-.003.763-.005.642-.005.566-.007.512-.007.47-.01.438-.01.41-.011.388-.013.369-.014.352-.014.337-.017.324-.017.313-.019.302-.02.292-.02.283-.023.275-.023.267-.025.26-.026.255-.027.247-.029.242-.029.236-.03.232-.033.226-.033.222-.034.217-.036.213-.037.209-.038.205-.04.2-.04.199-.042.194-.043.19-.044.188-.046.185-.047.181-.048.179-.05.176-.05.172-.051.17-.054.168-.054.165-.056.163-.057.16-.058.158-.06.156-.06.153-.062.15-.063.15-.065.146-.066.145-.067.142-.069.14-.07.14-.071.136-.073.134-.074.133-.075.131-.076.13-.078.126-.08.126-.08.123-.083.122-.083.12-.085.12-.086.116-.088.115-.089.114-.09.112-.092.11-.094.109-.095.107-.096.105-.098.104-.1.103-.1.1-.102.1-.104.098-.106.097-.107.095-.108.093-.11.092-.112.091-.114.09-.115.087-.116.086-.119.085-.12.084-.122.082-.123.08-.126.08-.127.078-.129.077-.13.075-.133.075-.134.072-.137.072-.138.07-.14.068-.143.068-.144.066-.147.065-.148.063-.151.062-.153.061-.155.06-.158.058-.16.057-.162.056-.165.054-.168.053-.17.052-.173.05-.175.05-.178.048-.182.047-.184.046-.187.044-.19.044-.195.042-.197.04-.201.04-.205.038-.208.037-.213.036-.217.034-.221.034-.226.032-.23.03-.237.03-.241.029-.248.027-.253.026-.26.025-.267.023-.274.023-.282.02-.292.02-.3.02-.312.017-.324.016-.336.015-.35.014-.368.013-.386.011-.409.01-.435.01-.467.008-.508.006-.561.006-.636.004-.75.003-.967.002-1.817.001h-2.98l-1.023-.002-.775-.003-.65-.004-.572-.006-.515-.006-.473-.008-.44-.009-.412-.01-.39-.011-.37-.013-.353-.013-.339-.015-.325-.016-.313-.018-.303-.018-.293-.02-.284-.021-.275-.022-.268-.023-.261-.025-.255-.026-.248-.027-.242-.028-.237-.03-.231-.03-.227-.032-.222-.033-.218-.035-.213-.035-.21-.037-.204-.038-.202-.04-.198-.04-.194-.042-.192-.043-.187-.044-.185-.045-.182-.047-.179-.048-.176-.05-.173-.05-.17-.051-.168-.053-.165-.055-.163-.055-.16-.057-.159-.058-.155-.06-.154-.06-.15-.062-.15-.063-.147-.065-.144-.066-.143-.067-.14-.068-.14-.07-.136-.071-.135-.073-.133-.074-.13-.075-.13-.076-.127-.078-.126-.08-.124-.08-.122-.082-.12-.083-.119-.085-.117-.086-.115-.088-.114-.089-.112-.09-.11-.092-.109-.093-.107-.095-.106-.096-.104-.098-.103-.1-.1-.1-.1-.102-.098-.104-.097-.105-.095-.107-.094-.109-.092-.11-.09-.111-.09-.114-.088-.115-.087-.116-.085-.118-.083-.12-.083-.122-.08-.123-.08-.126-.078-.127-.077-.128-.076-.13-.074-.133-.073-.135-.071-.136-.07-.138-.069-.14-.067-.142-.067-.145-.064-.146-.064-.149-.062-.15-.061-.153-.06-.155-.058-.158-.057-.16-.056-.161-.055-.165-.053-.167-.052-.17-.051-.173-.05-.175-.048-.178-.047-.181-.046-.184-.044-.187-.043-.19-.042-.194-.041-.197-.04-.201-.038-.204-.037-.209-.036-.212-.035-.217-.033-.22-.032-.226-.031-.23-.03-.236-.028-.24-.028-.248L.27 35l-.025-.26-.023-.266-.023-.274-.021-.282-.02-.29-.019-.3-.018-.311-.016-.322-.015-.336-.014-.349-.013-.366-.012-.385-.01-.406-.01-.433-.007-.465-.007-.504-.006-.556-.004-.628-.003-.74L0 26.584 0 24.958v-3.159l.002-1.055.003-.789.004-.658.005-.576.006-.52.008-.476.009-.442.01-.414.011-.392.013-.371.013-.355.015-.34.016-.325.017-.315.019-.303.02-.294.02-.284.022-.277.024-.268.024-.262.026-.255.027-.248.028-.243.03-.237.03-.232.032-.227.033-.223L.5 11.2l.035-.213.037-.21.038-.205.04-.202.04-.198.041-.195.043-.191.044-.189.046-.185.046-.182.048-.179.05-.176.05-.173.051-.17.053-.169.054-.165.056-.163.056-.16.058-.16.06-.155.06-.154.062-.15.063-.15.065-.147.065-.145.067-.143.069-.14.07-.14.07-.136.073-.135.074-.133.075-.131.076-.13.078-.127.079-.126.08-.124.082-.122.084-.12.084-.12.086-.117.088-.115.089-.114.09-.112.092-.11.093-.11.094-.107.097-.106.097-.104.1-.103.1-.1.102-.1.104-.099.105-.096.107-.096.108-.093.11-.093.111-.09.114-.09.114-.088.117-.087.118-.085.12-.084.121-.082.123-.081.125-.08.127-.078.129-.077.13-.076.133-.074.134-.073.136-.071.138-.07.14-.07.142-.067.144-.066.146-.065.149-.064.15-.062.153-.061.155-.06.157-.059.16-.057.161-.056.165-.055.167-.053.17-.052.172-.051.175-.05.178-.048.18-.047.184-.046.187-.045L9.9.75l.194-.042.197-.041.2-.04.204-.038.208-.037.212-.036.216-.035.22-.033.226-.033.23-.03.235-.03.24-.03.247-.027.252-.026.259-.025.265-.024L13.78.2l.28-.022.29-.02.3-.019.31-.017.321-.017.334-.015.349-.014.364-.013.383-.012.405-.01.43-.01.462-.008.501-.007.552-.005.621-.005.728-.003.92-.002L22.827 0h3.267l1.09.002.804.003.666.003.582.006.523.006.48.007.444.01.416.009.393.011.373.012.356.014.34.015.328.016.315.017.304.018.295.02.285.02.277.022.27.024.261.024.255.026.25.026.243.029.238.029.232.03.227.032.223.033.218.034.214.035.21.037.206.038.202.039.199.04.195.042.191.043.189.044.185.045.182.046.18.048.176.05.173.05.171.05.169.054.165.054.163.055.161.057.159.058.156.059.153.06.152.062.15.063.146.064.145.066.143.067.141.068.14.07.136.07.136.073.133.074.131.075.13.076.127.078.126.079.124.08.122.082.121.083.119.084.117.086.116.088.114.088.112.09.11.092.11.093.107.095.106.096.105.097.102.1.102.1.1.102.098.103.097.105.095.107.094.108.093.11.09.111.09.113.088.115.087.116.085.118.084.12.083.121.08.124.08.124.079.127.077.129.076.13.074.132.073.134.072.136.07.138.069.14.068.142.066.143.065.146.064.149.062.15.062.152.06.155.058.157.057.16.056.161.055.165.054.167.052.169.051.172.05.175.048.178.047.18.046.184.045.186.044.19.042.193.04.197.04.2.039.204.037.207.036.212.035.216.034.22.032.225.031.23.03.234.029.24.027.246.027.252.025.258.024.265.022.273.022.28.02.29.02.298.017.309.017.32.015.333.014.347.013.363.012.382.01.403.01.428.008.46.007.496.006.547.004.615.004.718.002.898v1.401L48 24z" fill="#D9F9B9"/><path d="M33.538 14.814a1.325 1.325 0 00-.497-.215 1.416 1.416 0 00-.553-.005c-1.336.246-2.715.25-4.052.009a10.75 10.75 0 01-3.724-1.407A1.37 1.37 0 0024 13a1.37 1.37 0 00-.712.196 10.75 10.75 0 01-3.724 1.407c-1.337.24-2.716.237-4.052-.01a1.416 1.416 0 00-.553.006 1.325 1.325 0 00-.496.215 1.135 1.135 0 00-.342.383.992.992 0 00-.121.475v8.198a8.96 8.96 0 001.246 4.535c.82 1.403 2.008 2.613 3.466 3.53l4.563 2.861c.212.133.465.204.725.204.26 0 .513-.071.725-.204l4.563-2.86c1.458-.918 2.647-2.128 3.466-3.53A8.96 8.96 0 0034 23.87v-8.198a.992.992 0 00-.12-.475 1.135 1.135 0 00-.343-.383zm-1.76 9.056c0 1.226-.609 2.435-1.246 3.526-.637 1.091-1.56 2.032-2.695 2.746L24 32.552l-3.837-2.41c-1.134-.714-2.058-1.655-2.695-2.746-.637-1.09-1.247-2.3-1.246-3.526v-6.933c2.62.198 5.523-.337 7.778-1.53 2.255 1.193 5.157 1.728 7.778 1.53v6.933zm-5.535-3.385l-3.362 2.97-1.113-.99a1.347 1.347 0 00-.887-.323c-.333 0-.652.116-.888.323a1.042 1.042 0 00-.367.782c0 .293.132.573.367.78l2 1.761c.116.103.255.185.407.241a1.398 1.398 0 00.961 0c.153-.056.291-.138.407-.24l4.3-3.753c.236-.207.368-.488.368-.781 0-.293-.132-.574-.368-.781a1.347 1.347 0 00-.887-.324c-.333 0-.652.116-.888.324l-.05.01z" fill="#68B300"/></svg>