<svg version="1.2" baseProfile="tiny-ps" xmlns="http://www.w3.org/2000/svg" width="28" height="23"><style></style><g id="Popup"><path id="Фигура 901" d="M26.99 2.69C23.98.89 21.45.01 19.26.01c-1.8 0-3.58.59-5.29 1.77C12.7.96 10.79.01 8.75.01c-3.17 0-7.28 2.4-7.74 2.68-.63.38-1.02 1.04-1.02 1.75v16.49c0 .75.44 1.45 1.14 1.81.33.17.69.26 1.06.26.4 0 .81-.11 1.17-.32 1.41-.85 4.03-2.04 5.39-2.04 1.41 0 3.23 1.33 3.75 1.79a2.275 2.275 0 003.01 0c1.32-1.19 2.58-1.79 3.75-1.79.91 0 2.58.36 5.39 2.04.36.21.77.32 1.17.32.37 0 .73-.09 1.06-.26.7-.36 1.13-1.06 1.13-1.81V4.44c0-.71-.38-1.37-1.02-1.75zM8.75 18.57c-2.62 0-6.56 2.36-6.56 2.36V4.44s3.94-2.36 6.56-2.36c1.58 0 3.15.85 4.16 1.53V20.1c-1.01-.68-2.58-1.53-4.16-1.53zm17.07 2.36c-2.62-1.57-4.81-2.36-6.56-2.36-1.39 0-2.77.5-4.16 1.48V3.57c1.39-.99 2.77-1.49 4.16-1.49 1.75 0 3.94.79 6.56 2.36v16.49z" fill="#4b97f9"/></g></svg>