<svg version="1.2" baseProfile="tiny-ps" xmlns="http://www.w3.org/2000/svg" width="19" height="28"><style></style><g id="Popup"><path id="Фигура 899" d="M10.52 20.93H8.18c-.64 0-1.16.52-1.16 1.16 0 .65.52 1.17 1.16 1.17h2.34a1.165 1.165 0 100-2.33zm7.68-18.5A4.699 4.699 0 0016.15.39c-1-.51-2.31-.51-4.93-.51H7.48c-2.62 0-3.93 0-4.93.51C1.67.84.96 1.55.51 2.43 0 3.43 0 4.74 0 7.36v13.1c0 2.62 0 3.93.51 4.93.45.88 1.16 1.59 2.04 2.04 1 .51 2.31.51 4.93.51h3.74c2.62 0 3.93 0 4.93-.51.88-.45 1.6-1.16 2.05-2.04.51-1 .51-2.31.51-4.93V7.36c0-2.62 0-3.93-.51-4.93zm-1.83 18.03c0 1.35 0 2.22-.06 2.88-.05.63-.14.87-.2.99-.22.44-.58.79-1.02 1.02-.11.06-.35.14-.98.2-.67.05-1.54.05-2.89.05H7.48c-1.35 0-2.22 0-2.88-.05-.63-.06-.87-.14-.98-.2-.44-.23-.8-.58-1.03-1.02-.06-.12-.14-.36-.2-.99-.05-.66-.05-1.53-.05-2.88V7.36c0-1.35 0-2.22.05-2.88.06-.63.14-.87.2-.99.23-.44.59-.79 1.03-1.02.11-.06.35-.14.98-.2.66-.05 1.53-.05 2.88-.05h3.74c1.35 0 2.22 0 2.89.05.63.06.87.14.98.2.44.23.8.58 1.02 1.02.06.12.15.36.2.99.06.66.06 1.53.06 2.88v13.1z" fill="#4b97f9"/></g></svg>