<svg version="1.2" baseProfile="tiny-ps" xmlns="http://www.w3.org/2000/svg" width="26" height="25"><style></style><g id="Popup"><path id="Фигура 896 копия" d="M20.53.43c1.5 0 2.27.15 3.07.57.74.4 1.32.98 1.72 1.72.39.74.55 1.45.57 2.74V12.07c0 .65-.52 1.17-1.17 1.17-.6 0-1.1-.45-1.17-1.03l-.01-.14V8.01H2.36v7.71c0 1.15.08 1.55.3 1.97.17.32.42.57.75.75.38.2.75.28 1.71.29l.25.01h16.51l-1.92-1.92c-.42-.42-.45-1.08-.1-1.54l.1-.12c.42-.42 1.08-.46 1.55-.11l.12.11 3.92 3.92c.42.42.46 1.08.1 1.54l-.1.12-3.92 3.93c-.46.46-1.21.46-1.67 0-.42-.42-.45-1.08-.1-1.55l.1-.12 1.92-1.91H5.37c-1.39 0-2.15-.13-2.89-.48l-.18-.1c-.74-.39-1.32-.98-1.72-1.71-.39-.74-.55-1.45-.57-2.74L0 15.72V5.8c0-1.51.15-2.28.58-3.08.4-.74.98-1.32 1.72-1.72C3.04.61 3.75.45 5.04.43h15.49zm0 2.35H5.37c-1.15 0-1.55.08-1.96.3-.33.18-.58.43-.75.75-.21.38-.29.75-.3 1.71v.12h21.18v-.12c-.01-.96-.09-1.33-.3-1.71-.17-.32-.42-.57-.75-.75-.38-.2-.75-.28-1.71-.3h-.25z" fill="#4b97f9"/></g></svg>